<svg xmlns="http://www.w3.org/2000/svg" width="1200" height="540" viewBox="0 0 1200 540" font-family="Arial, Helvetica, sans-serif">
<rect x="0" y="0" width="1200" height="42" fill="#1F3A5F" stroke="#1F3A5F" stroke-width="0" rx="0" ry="0"/>
<text x="600.0" y="27" font-size="17" fill="#FFFFFF" text-anchor="middle" font-weight="bold">Pipeline Ownership Matrix — five verticals × eight stages</text>
<rect x="260" y="90" width="920" height="50" fill="#1F3A5F" stroke="#15293F" stroke-width="1" rx="6" ry="6"/>
<text x="317.5" y="112" font-size="11" fill="#FFFFFF" text-anchor="middle" font-weight="bold">Discovery &amp;</text>
<text x="317.5" y="128" font-size="11" fill="#FFFFFF" text-anchor="middle" font-weight="bold">Intake</text>
<text x="432.5" y="112" font-size="11" fill="#FFFFFF" text-anchor="middle" font-weight="bold">Triage &amp;</text>
<text x="432.5" y="128" font-size="11" fill="#FFFFFF" text-anchor="middle" font-weight="bold">Tiering</text>
<text x="547.5" y="112" font-size="11" fill="#FFFFFF" text-anchor="middle" font-weight="bold">Static /</text>
<text x="547.5" y="128" font-size="11" fill="#FFFFFF" text-anchor="middle" font-weight="bold">Pre-Prod</text>
<text x="662.5" y="112" font-size="11" fill="#FFFFFF" text-anchor="middle" font-weight="bold">Dynamic AppSec</text>
<text x="777.5" y="112" font-size="11" fill="#FFFFFF" text-anchor="middle" font-weight="bold">AI Red</text>
<text x="777.5" y="128" font-size="11" fill="#FFFFFF" text-anchor="middle" font-weight="bold">Team</text>
<text x="892.5" y="112" font-size="11" fill="#FFFFFF" text-anchor="middle" font-weight="bold">Remediation</text>
<text x="1007.5" y="112" font-size="11" fill="#FFFFFF" text-anchor="middle" font-weight="bold">Continuous Monitoring</text>
<text x="1122.5" y="112" font-size="11" fill="#FFFFFF" text-anchor="middle" font-weight="bold">Reporting &amp;</text>
<text x="1122.5" y="128" font-size="11" fill="#FFFFFF" text-anchor="middle" font-weight="bold">Notification</text>
<rect x="60" y="140" width="1120" height="64" fill="#F2F5F9" stroke="#8A95A8" stroke-width="0.5" rx="0" ry="0"/>
<text x="72" y="177.0" font-size="13" fill="#15293F" text-anchor="start" font-weight="bold">AppSec</text>
<rect x="272.0" y="150" width="91.0" height="44" fill="#C8E0CF" stroke="#3D8C5C" stroke-width="1" rx="6" ry="6"/>
<text x="317.5" y="178.0" font-size="11" fill="#15293F" text-anchor="middle" font-weight="bold">Support</text>
<rect x="387.0" y="150" width="91.0" height="44" fill="#C04A2B" stroke="#C04A2B" stroke-width="1" rx="6" ry="6"/>
<text x="432.5" y="178.0" font-size="11" fill="#FFFFFF" text-anchor="middle" font-weight="bold">PRIMARY</text>
<rect x="502.0" y="150" width="91.0" height="44" fill="#C04A2B" stroke="#C04A2B" stroke-width="1" rx="6" ry="6"/>
<text x="547.5" y="178.0" font-size="11" fill="#FFFFFF" text-anchor="middle" font-weight="bold">PRIMARY</text>
<rect x="617.0" y="150" width="91.0" height="44" fill="#C04A2B" stroke="#C04A2B" stroke-width="1" rx="6" ry="6"/>
<text x="662.5" y="178.0" font-size="11" fill="#FFFFFF" text-anchor="middle" font-weight="bold">PRIMARY</text>
<rect x="732.0" y="150" width="91.0" height="44" fill="#C8E0CF" stroke="#3D8C5C" stroke-width="1" rx="6" ry="6"/>
<text x="777.5" y="178.0" font-size="11" fill="#15293F" text-anchor="middle" font-weight="bold">Support</text>
<rect x="847.0" y="150" width="91.0" height="44" fill="#C04A2B" stroke="#C04A2B" stroke-width="1" rx="6" ry="6"/>
<text x="892.5" y="178.0" font-size="11" fill="#FFFFFF" text-anchor="middle" font-weight="bold">PRIMARY</text>
<rect x="962.0" y="150" width="91.0" height="44" fill="#C8E0CF" stroke="#3D8C5C" stroke-width="1" rx="6" ry="6"/>
<text x="1007.5" y="178.0" font-size="11" fill="#15293F" text-anchor="middle" font-weight="bold">Support</text>
<rect x="1077.0" y="150" width="91.0" height="44" fill="#C04A2B" stroke="#C04A2B" stroke-width="1" rx="6" ry="6"/>
<text x="1122.5" y="178.0" font-size="11" fill="#FFFFFF" text-anchor="middle" font-weight="bold">PRIMARY</text>
<rect x="60" y="204" width="1120" height="64" fill="#FFFFFF" stroke="#8A95A8" stroke-width="0.5" rx="0" ry="0"/>
<text x="72" y="241.0" font-size="13" fill="#15293F" text-anchor="start" font-weight="bold">Threat Intel</text>
<rect x="272.0" y="214" width="91.0" height="44" fill="#C04A2B" stroke="#C04A2B" stroke-width="1" rx="6" ry="6"/>
<text x="317.5" y="242.0" font-size="11" fill="#FFFFFF" text-anchor="middle" font-weight="bold">PRIMARY</text>
<rect x="387.0" y="214" width="91.0" height="44" fill="#C8E0CF" stroke="#3D8C5C" stroke-width="1" rx="6" ry="6"/>
<text x="432.5" y="242.0" font-size="11" fill="#15293F" text-anchor="middle" font-weight="bold">Support</text>
<text x="547.5" y="241.0" font-size="14" fill="#8A95A8" text-anchor="middle" font-weight="normal">—</text>
<text x="662.5" y="241.0" font-size="14" fill="#8A95A8" text-anchor="middle" font-weight="normal">—</text>
<rect x="732.0" y="214" width="91.0" height="44" fill="#C8E0CF" stroke="#3D8C5C" stroke-width="1" rx="6" ry="6"/>
<text x="777.5" y="242.0" font-size="11" fill="#15293F" text-anchor="middle" font-weight="bold">Support</text>
<text x="892.5" y="241.0" font-size="14" fill="#8A95A8" text-anchor="middle" font-weight="normal">—</text>
<rect x="962.0" y="214" width="91.0" height="44" fill="#C8E0CF" stroke="#3D8C5C" stroke-width="1" rx="6" ry="6"/>
<text x="1007.5" y="242.0" font-size="11" fill="#15293F" text-anchor="middle" font-weight="bold">Support</text>
<rect x="1077.0" y="214" width="91.0" height="44" fill="#C8E0CF" stroke="#3D8C5C" stroke-width="1" rx="6" ry="6"/>
<text x="1122.5" y="242.0" font-size="11" fill="#15293F" text-anchor="middle" font-weight="bold">Support</text>
<rect x="60" y="268" width="1120" height="64" fill="#F2F5F9" stroke="#8A95A8" stroke-width="0.5" rx="0" ry="0"/>
<text x="72" y="305.0" font-size="13" fill="#15293F" text-anchor="start" font-weight="bold">Threat Hunt</text>
<rect x="272.0" y="278" width="91.0" height="44" fill="#C8E0CF" stroke="#3D8C5C" stroke-width="1" rx="6" ry="6"/>
<text x="317.5" y="306.0" font-size="11" fill="#15293F" text-anchor="middle" font-weight="bold">Support</text>
<text x="432.5" y="305.0" font-size="14" fill="#8A95A8" text-anchor="middle" font-weight="normal">—</text>
<text x="547.5" y="305.0" font-size="14" fill="#8A95A8" text-anchor="middle" font-weight="normal">—</text>
<text x="662.5" y="305.0" font-size="14" fill="#8A95A8" text-anchor="middle" font-weight="normal">—</text>
<text x="777.5" y="305.0" font-size="14" fill="#8A95A8" text-anchor="middle" font-weight="normal">—</text>
<text x="892.5" y="305.0" font-size="14" fill="#8A95A8" text-anchor="middle" font-weight="normal">—</text>
<rect x="962.0" y="278" width="91.0" height="44" fill="#C04A2B" stroke="#C04A2B" stroke-width="1" rx="6" ry="6"/>
<text x="1007.5" y="306.0" font-size="11" fill="#FFFFFF" text-anchor="middle" font-weight="bold">PRIMARY</text>
<rect x="1077.0" y="278" width="91.0" height="44" fill="#C8E0CF" stroke="#3D8C5C" stroke-width="1" rx="6" ry="6"/>
<text x="1122.5" y="306.0" font-size="11" fill="#15293F" text-anchor="middle" font-weight="bold">Support</text>
<rect x="60" y="332" width="1120" height="64" fill="#FFFFFF" stroke="#8A95A8" stroke-width="0.5" rx="0" ry="0"/>
<text x="72" y="369.0" font-size="13" fill="#15293F" text-anchor="start" font-weight="bold">Red Team</text>
<text x="317.5" y="369.0" font-size="14" fill="#8A95A8" text-anchor="middle" font-weight="normal">—</text>
<rect x="387.0" y="342" width="91.0" height="44" fill="#C8E0CF" stroke="#3D8C5C" stroke-width="1" rx="6" ry="6"/>
<text x="432.5" y="370.0" font-size="11" fill="#15293F" text-anchor="middle" font-weight="bold">Support</text>
<text x="547.5" y="369.0" font-size="14" fill="#8A95A8" text-anchor="middle" font-weight="normal">—</text>
<rect x="617.0" y="342" width="91.0" height="44" fill="#C8E0CF" stroke="#3D8C5C" stroke-width="1" rx="6" ry="6"/>
<text x="662.5" y="370.0" font-size="11" fill="#15293F" text-anchor="middle" font-weight="bold">Support</text>
<rect x="732.0" y="342" width="91.0" height="44" fill="#C04A2B" stroke="#C04A2B" stroke-width="1" rx="6" ry="6"/>
<text x="777.5" y="370.0" font-size="11" fill="#FFFFFF" text-anchor="middle" font-weight="bold">PRIMARY</text>
<rect x="847.0" y="342" width="91.0" height="44" fill="#C8E0CF" stroke="#3D8C5C" stroke-width="1" rx="6" ry="6"/>
<text x="892.5" y="370.0" font-size="11" fill="#15293F" text-anchor="middle" font-weight="bold">Support</text>
<rect x="962.0" y="342" width="91.0" height="44" fill="#C8E0CF" stroke="#3D8C5C" stroke-width="1" rx="6" ry="6"/>
<text x="1007.5" y="370.0" font-size="11" fill="#15293F" text-anchor="middle" font-weight="bold">Support</text>
<rect x="1077.0" y="342" width="91.0" height="44" fill="#C8E0CF" stroke="#3D8C5C" stroke-width="1" rx="6" ry="6"/>
<text x="1122.5" y="370.0" font-size="11" fill="#15293F" text-anchor="middle" font-weight="bold">Support</text>
<rect x="60" y="396" width="1120" height="64" fill="#F2F5F9" stroke="#8A95A8" stroke-width="0.5" rx="0" ry="0"/>
<text x="72" y="433.0" font-size="13" fill="#15293F" text-anchor="start" font-weight="bold">Security Control Validation</text>
<rect x="272.0" y="406" width="91.0" height="44" fill="#C8E0CF" stroke="#3D8C5C" stroke-width="1" rx="6" ry="6"/>
<text x="317.5" y="434.0" font-size="11" fill="#15293F" text-anchor="middle" font-weight="bold">Support</text>
<rect x="387.0" y="406" width="91.0" height="44" fill="#C8E0CF" stroke="#3D8C5C" stroke-width="1" rx="6" ry="6"/>
<text x="432.5" y="434.0" font-size="11" fill="#15293F" text-anchor="middle" font-weight="bold">Support</text>
<rect x="502.0" y="406" width="91.0" height="44" fill="#C04A2B" stroke="#C04A2B" stroke-width="1" rx="6" ry="6"/>
<text x="547.5" y="434.0" font-size="11" fill="#FFFFFF" text-anchor="middle" font-weight="bold">PRIMARY</text>
<rect x="617.0" y="406" width="91.0" height="44" fill="#C04A2B" stroke="#C04A2B" stroke-width="1" rx="6" ry="6"/>
<text x="662.5" y="434.0" font-size="11" fill="#FFFFFF" text-anchor="middle" font-weight="bold">PRIMARY</text>
<rect x="732.0" y="406" width="91.0" height="44" fill="#C04A2B" stroke="#C04A2B" stroke-width="1" rx="6" ry="6"/>
<text x="777.5" y="434.0" font-size="11" fill="#FFFFFF" text-anchor="middle" font-weight="bold">PRIMARY</text>
<rect x="847.0" y="406" width="91.0" height="44" fill="#C04A2B" stroke="#C04A2B" stroke-width="1" rx="6" ry="6"/>
<text x="892.5" y="434.0" font-size="11" fill="#FFFFFF" text-anchor="middle" font-weight="bold">PRIMARY</text>
<rect x="962.0" y="406" width="91.0" height="44" fill="#C04A2B" stroke="#C04A2B" stroke-width="1" rx="6" ry="6"/>
<text x="1007.5" y="434.0" font-size="11" fill="#FFFFFF" text-anchor="middle" font-weight="bold">PRIMARY</text>
<rect x="1077.0" y="406" width="91.0" height="44" fill="#C8E0CF" stroke="#3D8C5C" stroke-width="1" rx="6" ry="6"/>
<text x="1122.5" y="434.0" font-size="11" fill="#15293F" text-anchor="middle" font-weight="bold">Support</text>
<rect x="72" y="478" width="18" height="18" fill="#C04A2B" stroke="#C04A2B" stroke-width="1" rx="4" ry="4"/>
<text x="98" y="492" font-size="12" fill="#222222" text-anchor="start" font-weight="normal">PRIMARY  — accountable for execution and outcome</text>
<rect x="432" y="478" width="18" height="18" fill="#C8E0CF" stroke="#3D8C5C" stroke-width="1" rx="4" ry="4"/>
<text x="458" y="492" font-size="12" fill="#222222" text-anchor="start" font-weight="normal">Support  — contributes capability or telemetry</text>
<text x="792" y="492" font-size="12" fill="#555555" text-anchor="start" font-weight="normal">—  Not directly engaged at this stage</text>
</svg>