<svg xmlns="http://www.w3.org/2000/svg" width="1200" height="720" viewBox="0 0 1200 720" font-family="Arial, Helvetica, sans-serif">
<rect x="0" y="0" width="1200" height="42" fill="#1F3A5F" stroke="#1F3A5F" stroke-width="0" rx="0" ry="0"/>
<text x="600.0" y="27" font-size="17" fill="#FFFFFF" text-anchor="middle" font-weight="bold">Executive Dashboard — for CISO and cyber executive review</text>
<rect x="40.0" y="70" width="268.75" height="110" fill="#1F3A5F" stroke="#15293F" stroke-width="1" rx="6" ry="6"/>
<text x="174.375" y="98" font-size="13" fill="#EAF3FA" text-anchor="middle" font-weight="normal">Registered AI Assets</text>
<text x="174.375" y="142" font-size="32" fill="#FFFFFF" text-anchor="middle" font-weight="bold">412</text>
<text x="174.375" y="168" font-size="11" fill="#EAF3FA" text-anchor="middle" font-weight="normal">+38 / quarter</text>
<rect x="323.75" y="70" width="268.75" height="110" fill="#1F3A5F" stroke="#15293F" stroke-width="1" rx="6" ry="6"/>
<text x="458.125" y="98" font-size="13" fill="#EAF3FA" text-anchor="middle" font-weight="normal">Tier 1 Coverage</text>
<text x="458.125" y="142" font-size="32" fill="#FFFFFF" text-anchor="middle" font-weight="bold">100%</text>
<text x="458.125" y="168" font-size="11" fill="#EAF3FA" text-anchor="middle" font-weight="normal">all scanned</text>
<rect x="607.5" y="70" width="268.75" height="110" fill="#1F3A5F" stroke="#15293F" stroke-width="1" rx="6" ry="6"/>
<text x="741.875" y="98" font-size="13" fill="#EAF3FA" text-anchor="middle" font-weight="normal">Avoided-harm Demos</text>
<text x="741.875" y="142" font-size="32" fill="#FFFFFF" text-anchor="middle" font-weight="bold">9</text>
<text x="741.875" y="168" font-size="11" fill="#EAF3FA" text-anchor="middle" font-weight="normal">Phase 1 to date</text>
<rect x="891.25" y="70" width="268.75" height="110" fill="#1F3A5F" stroke="#15293F" stroke-width="1" rx="6" ry="6"/>
<text x="1025.625" y="98" font-size="13" fill="#EAF3FA" text-anchor="middle" font-weight="normal">Open Critical Risk</text>
<text x="1025.625" y="142" font-size="32" fill="#FFFFFF" text-anchor="middle" font-weight="bold">Low</text>
<text x="1025.625" y="168" font-size="11" fill="#EAF3FA" text-anchor="middle" font-weight="normal">trending down</text>
<rect x="40" y="200" width="560" height="240" fill="#FFFFFF" stroke="#8A95A8" stroke-width="1" rx="6" ry="6"/>
<text x="60" y="222" font-size="13" fill="#15293F" text-anchor="start" font-weight="bold">Residual risk heatmap — Business Unit × Tier</text>
<text x="230.0" y="249" font-size="11" fill="#15293F" text-anchor="middle" font-weight="bold">Tier 1</text>
<text x="330.0" y="249" font-size="11" fill="#15293F" text-anchor="middle" font-weight="bold">Tier 2</text>
<text x="430.0" y="249" font-size="11" fill="#15293F" text-anchor="middle" font-weight="bold">Tier 3</text>
<text x="530.0" y="249" font-size="11" fill="#15293F" text-anchor="middle" font-weight="bold">Tier 4</text>
<text x="170" y="270" font-size="11" fill="#222222" text-anchor="end" font-weight="normal">Clinical</text>
<rect x="180" y="255" width="98" height="20" fill="#C8E0CF" stroke="#8A95A8" stroke-width="0.3"/>
<text x="229.0" y="270" font-size="10" fill="#15293F" text-anchor="middle" font-weight="normal">low</text>
<rect x="280" y="255" width="98" height="20" fill="#E0A555" stroke="#8A95A8" stroke-width="0.3"/>
<text x="329.0" y="270" font-size="10" fill="#15293F" text-anchor="middle" font-weight="normal">elev</text>
<rect x="380" y="255" width="98" height="20" fill="#F5E0B8" stroke="#8A95A8" stroke-width="0.3"/>
<text x="429.0" y="270" font-size="10" fill="#15293F" text-anchor="middle" font-weight="normal">mod</text>
<rect x="480" y="255" width="98" height="20" fill="#C8E0CF" stroke="#8A95A8" stroke-width="0.3"/>
<text x="529.0" y="270" font-size="10" fill="#15293F" text-anchor="middle" font-weight="normal">low</text>
<text x="170" y="292" font-size="11" fill="#222222" text-anchor="end" font-weight="normal">Imaging</text>
<rect x="180" y="277" width="98" height="20" fill="#F5E0B8" stroke="#8A95A8" stroke-width="0.3"/>
<text x="229.0" y="292" font-size="10" fill="#15293F" text-anchor="middle" font-weight="normal">mod</text>
<rect x="280" y="277" width="98" height="20" fill="#E0A555" stroke="#8A95A8" stroke-width="0.3"/>
<text x="329.0" y="292" font-size="10" fill="#15293F" text-anchor="middle" font-weight="normal">elev</text>
<rect x="380" y="277" width="98" height="20" fill="#C8E0CF" stroke="#8A95A8" stroke-width="0.3"/>
<text x="429.0" y="292" font-size="10" fill="#15293F" text-anchor="middle" font-weight="normal">low</text>
<rect x="480" y="277" width="98" height="20" fill="#F5E0B8" stroke="#8A95A8" stroke-width="0.3"/>
<text x="529.0" y="292" font-size="10" fill="#15293F" text-anchor="middle" font-weight="normal">mod</text>
<text x="170" y="314" font-size="11" fill="#222222" text-anchor="end" font-weight="normal">Pharmacy</text>
<rect x="180" y="299" width="98" height="20" fill="#E0A555" stroke="#8A95A8" stroke-width="0.3"/>
<text x="229.0" y="314" font-size="10" fill="#15293F" text-anchor="middle" font-weight="normal">elev</text>
<rect x="280" y="299" width="98" height="20" fill="#C8E0CF" stroke="#8A95A8" stroke-width="0.3"/>
<text x="329.0" y="314" font-size="10" fill="#15293F" text-anchor="middle" font-weight="normal">low</text>
<rect x="380" y="299" width="98" height="20" fill="#F5E0B8" stroke="#8A95A8" stroke-width="0.3"/>
<text x="429.0" y="314" font-size="10" fill="#15293F" text-anchor="middle" font-weight="normal">mod</text>
<rect x="480" y="299" width="98" height="20" fill="#C8E0CF" stroke="#8A95A8" stroke-width="0.3"/>
<text x="529.0" y="314" font-size="10" fill="#15293F" text-anchor="middle" font-weight="normal">low</text>
<text x="170" y="336" font-size="11" fill="#222222" text-anchor="end" font-weight="normal">Revenue Cycle</text>
<rect x="180" y="321" width="98" height="20" fill="#C04A2B" stroke="#8A95A8" stroke-width="0.3"/>
<text x="229.0" y="336" font-size="10" fill="#FFFFFF" text-anchor="middle" font-weight="normal">high</text>
<rect x="280" y="321" width="98" height="20" fill="#F5E0B8" stroke="#8A95A8" stroke-width="0.3"/>
<text x="329.0" y="336" font-size="10" fill="#15293F" text-anchor="middle" font-weight="normal">mod</text>
<rect x="380" y="321" width="98" height="20" fill="#C8E0CF" stroke="#8A95A8" stroke-width="0.3"/>
<text x="429.0" y="336" font-size="10" fill="#15293F" text-anchor="middle" font-weight="normal">low</text>
<rect x="480" y="321" width="98" height="20" fill="#F5E0B8" stroke="#8A95A8" stroke-width="0.3"/>
<text x="529.0" y="336" font-size="10" fill="#15293F" text-anchor="middle" font-weight="normal">mod</text>
<text x="170" y="358" font-size="11" fill="#222222" text-anchor="end" font-weight="normal">Care Mgmt</text>
<rect x="180" y="343" width="98" height="20" fill="#C8E0CF" stroke="#8A95A8" stroke-width="0.3"/>
<text x="229.0" y="358" font-size="10" fill="#15293F" text-anchor="middle" font-weight="normal">low</text>
<rect x="280" y="343" width="98" height="20" fill="#C8E0CF" stroke="#8A95A8" stroke-width="0.3"/>
<text x="329.0" y="358" font-size="10" fill="#15293F" text-anchor="middle" font-weight="normal">low</text>
<rect x="380" y="343" width="98" height="20" fill="#F5E0B8" stroke="#8A95A8" stroke-width="0.3"/>
<text x="429.0" y="358" font-size="10" fill="#15293F" text-anchor="middle" font-weight="normal">mod</text>
<rect x="480" y="343" width="98" height="20" fill="#C8E0CF" stroke="#8A95A8" stroke-width="0.3"/>
<text x="529.0" y="358" font-size="10" fill="#15293F" text-anchor="middle" font-weight="normal">low</text>
<text x="170" y="380" font-size="11" fill="#222222" text-anchor="end" font-weight="normal">HR / IT</text>
<rect x="180" y="365" width="98" height="20" fill="#E0A555" stroke="#8A95A8" stroke-width="0.3"/>
<text x="229.0" y="380" font-size="10" fill="#15293F" text-anchor="middle" font-weight="normal">elev</text>
<rect x="280" y="365" width="98" height="20" fill="#C04A2B" stroke="#8A95A8" stroke-width="0.3"/>
<text x="329.0" y="380" font-size="10" fill="#FFFFFF" text-anchor="middle" font-weight="normal">high</text>
<rect x="380" y="365" width="98" height="20" fill="#F5E0B8" stroke="#8A95A8" stroke-width="0.3"/>
<text x="429.0" y="380" font-size="10" fill="#15293F" text-anchor="middle" font-weight="normal">mod</text>
<rect x="480" y="365" width="98" height="20" fill="#C8E0CF" stroke="#8A95A8" stroke-width="0.3"/>
<text x="529.0" y="380" font-size="10" fill="#15293F" text-anchor="middle" font-weight="normal">low</text>
<text x="170" y="402" font-size="11" fill="#222222" text-anchor="end" font-weight="normal">Marketing</text>
<rect x="180" y="387" width="98" height="20" fill="#F5E0B8" stroke="#8A95A8" stroke-width="0.3"/>
<text x="229.0" y="402" font-size="10" fill="#15293F" text-anchor="middle" font-weight="normal">mod</text>
<rect x="280" y="387" width="98" height="20" fill="#E0A555" stroke="#8A95A8" stroke-width="0.3"/>
<text x="329.0" y="402" font-size="10" fill="#15293F" text-anchor="middle" font-weight="normal">elev</text>
<rect x="380" y="387" width="98" height="20" fill="#C8E0CF" stroke="#8A95A8" stroke-width="0.3"/>
<text x="429.0" y="402" font-size="10" fill="#15293F" text-anchor="middle" font-weight="normal">low</text>
<rect x="480" y="387" width="98" height="20" fill="#C8E0CF" stroke="#8A95A8" stroke-width="0.3"/>
<text x="529.0" y="402" font-size="10" fill="#15293F" text-anchor="middle" font-weight="normal">low</text>
<rect x="60" y="410" width="14" height="14" fill="#C8E0CF" stroke="#8A95A8" stroke-width="0.5" rx="2" ry="2"/>
<text x="80" y="421" font-size="11" fill="#222222" text-anchor="start" font-weight="normal">Low</text>
<rect x="180" y="410" width="14" height="14" fill="#F5E0B8" stroke="#8A95A8" stroke-width="0.5" rx="2" ry="2"/>
<text x="200" y="421" font-size="11" fill="#222222" text-anchor="start" font-weight="normal">Moderate</text>
<rect x="300" y="410" width="14" height="14" fill="#E0A555" stroke="#8A95A8" stroke-width="0.5" rx="2" ry="2"/>
<text x="320" y="421" font-size="11" fill="#222222" text-anchor="start" font-weight="normal">Elevated</text>
<rect x="420" y="410" width="14" height="14" fill="#C04A2B" stroke="#8A95A8" stroke-width="0.5" rx="2" ry="2"/>
<text x="440" y="421" font-size="11" fill="#222222" text-anchor="start" font-weight="normal">High</text>
<rect x="615" y="200" width="545" height="240" fill="#FFFFFF" stroke="#8A95A8" stroke-width="1" rx="6" ry="6"/>
<text x="635" y="222" font-size="13" fill="#15293F" text-anchor="start" font-weight="bold">Risk introduced vs. risk closed (monthly)</text>
<line x1="645" y1="415" x2="1145" y2="415" stroke="#8A95A8" stroke-width="1"/>
<line x1="645" y1="255" x2="645" y2="415" stroke="#8A95A8" stroke-width="1"/>
<rect x="650.0" y="361.6666666666667" width="15.625" height="53.33333333333333" fill="#C04A2B"/>
<rect x="666.625" y="401.6666666666667" width="15.625" height="13.333333333333332" fill="#3D8C5C"/>
<text x="665.625" y="427" font-size="9" fill="#555555" text-anchor="middle" font-weight="normal">M1</text>
<rect x="696.875" y="341.6666666666667" width="15.625" height="73.33333333333333" fill="#C04A2B"/>
<rect x="713.5" y="381.6666666666667" width="15.625" height="33.33333333333333" fill="#3D8C5C"/>
<text x="712.5" y="427" font-size="9" fill="#555555" text-anchor="middle" font-weight="normal">M2</text>
<rect x="743.75" y="321.6666666666667" width="15.625" height="93.33333333333333" fill="#C04A2B"/>
<rect x="760.375" y="348.33333333333337" width="15.625" height="66.66666666666666" fill="#3D8C5C"/>
<text x="759.375" y="427" font-size="9" fill="#555555" text-anchor="middle" font-weight="normal">M3</text>
<rect x="790.625" y="308.33333333333337" width="15.625" height="106.66666666666666" fill="#C04A2B"/>
<rect x="807.25" y="315.0" width="15.625" height="100.0" fill="#3D8C5C"/>
<text x="806.25" y="427" font-size="9" fill="#555555" text-anchor="middle" font-weight="normal">M4</text>
<rect x="837.5" y="301.6666666666667" width="15.625" height="113.33333333333333" fill="#C04A2B"/>
<rect x="854.125" y="295.0" width="15.625" height="120.0" fill="#3D8C5C"/>
<text x="853.125" y="427" font-size="9" fill="#555555" text-anchor="middle" font-weight="normal">M5</text>
<rect x="884.375" y="295.0" width="15.625" height="120.0" fill="#C04A2B"/>
<rect x="901.0" y="275.0" width="15.625" height="140.0" fill="#3D8C5C"/>
<text x="900.0" y="427" font-size="9" fill="#555555" text-anchor="middle" font-weight="normal">M6</text>
<rect x="931.25" y="308.33333333333337" width="15.625" height="106.66666666666666" fill="#C04A2B"/>
<rect x="947.875" y="281.6666666666667" width="15.625" height="133.33333333333331" fill="#3D8C5C"/>
<text x="946.875" y="427" font-size="9" fill="#555555" text-anchor="middle" font-weight="normal">M7</text>
<rect x="978.125" y="321.6666666666667" width="15.625" height="93.33333333333333" fill="#C04A2B"/>
<rect x="994.75" y="288.33333333333337" width="15.625" height="126.66666666666666" fill="#3D8C5C"/>
<text x="993.75" y="427" font-size="9" fill="#555555" text-anchor="middle" font-weight="normal">M8</text>
<rect x="1025.0" y="335.0" width="15.625" height="80.0" fill="#C04A2B"/>
<rect x="1041.625" y="295.0" width="15.625" height="120.0" fill="#3D8C5C"/>
<text x="1040.625" y="427" font-size="9" fill="#555555" text-anchor="middle" font-weight="normal">M9</text>
<rect x="1071.875" y="341.6666666666667" width="15.625" height="73.33333333333333" fill="#C04A2B"/>
<rect x="1088.5" y="301.6666666666667" width="15.625" height="113.33333333333333" fill="#3D8C5C"/>
<text x="1087.5" y="427" font-size="9" fill="#555555" text-anchor="middle" font-weight="normal">M10</text>
<rect x="1118.75" y="348.33333333333337" width="15.625" height="66.66666666666666" fill="#C04A2B"/>
<rect x="1135.375" y="308.33333333333337" width="15.625" height="106.66666666666666" fill="#3D8C5C"/>
<text x="1134.375" y="427" font-size="9" fill="#555555" text-anchor="middle" font-weight="normal">M11</text>
<rect x="965" y="253" width="14" height="14" fill="#C04A2B" stroke="#C04A2B" stroke-width="0" rx="2" ry="2"/>
<text x="985" y="265" font-size="11" fill="#222222" text-anchor="start" font-weight="normal">Introduced</text>
<rect x="1055" y="253" width="14" height="14" fill="#3D8C5C" stroke="#3D8C5C" stroke-width="0" rx="2" ry="2"/>
<text x="1075" y="265" font-size="11" fill="#222222" text-anchor="start" font-weight="normal">Closed</text>
<rect x="40" y="460" width="380" height="240" fill="#FFFFFF" stroke="#8A95A8" stroke-width="1" rx="6" ry="6"/>
<text x="60" y="482" font-size="13" fill="#15293F" text-anchor="start" font-weight="bold">Control coverage — HIPAA / HITRUST</text>
<path d="M 150 520 A 70 70 0 1 1 81.24 576.88 L 112.67 582.88 A 38 38 0 1 0 150 552 Z" fill="#3D8C5C"/>
<path d="M 81.24 576.88 A 70 70 0 0 1 150 520 L 150 552 A 38 38 0 0 0 112.67 582.88 Z" fill="#F2F5F9"/>
<text x="150" y="595" font-size="26" fill="#15293F" text-anchor="middle" font-weight="bold">78%</text>
<text x="150" y="614" font-size="11" fill="#555555" text-anchor="middle" font-weight="normal">covered</text>
<text x="240" y="530" font-size="11" fill="#222222" text-anchor="start" font-weight="normal">HIPAA Privacy</text>
<rect x="240" y="535" width="130" height="10" fill="#F2F5F9" stroke="#8A95A8" stroke-width="0.3" rx="4" ry="4"/>
<rect x="240" y="535" width="119.6" height="10" fill="#3D8C5C" stroke="#3D8C5C" stroke-width="0" rx="4" ry="4"/>
<text x="375" y="544" font-size="11" fill="#555555" text-anchor="start" font-weight="normal">92%</text>
<text x="240" y="566" font-size="11" fill="#222222" text-anchor="start" font-weight="normal">HIPAA Security</text>
<rect x="240" y="571" width="130" height="10" fill="#F2F5F9" stroke="#8A95A8" stroke-width="0.3" rx="4" ry="4"/>
<rect x="240" y="571" width="105.3" height="10" fill="#3D8C5C" stroke="#3D8C5C" stroke-width="0" rx="4" ry="4"/>
<text x="375" y="580" font-size="11" fill="#555555" text-anchor="start" font-weight="normal">81%</text>
<text x="240" y="602" font-size="11" fill="#222222" text-anchor="start" font-weight="normal">HITRUST CSF</text>
<rect x="240" y="607" width="130" height="10" fill="#F2F5F9" stroke="#8A95A8" stroke-width="0.3" rx="4" ry="4"/>
<rect x="240" y="607" width="96.2" height="10" fill="#3D8C5C" stroke="#3D8C5C" stroke-width="0" rx="4" ry="4"/>
<text x="375" y="616" font-size="11" fill="#555555" text-anchor="start" font-weight="normal">74%</text>
<text x="240" y="638" font-size="11" fill="#222222" text-anchor="start" font-weight="normal">FDA SaMD readiness</text>
<rect x="240" y="643" width="130" height="10" fill="#F2F5F9" stroke="#8A95A8" stroke-width="0.3" rx="4" ry="4"/>
<rect x="240" y="643" width="78.0" height="10" fill="#3D8C5C" stroke="#3D8C5C" stroke-width="0" rx="4" ry="4"/>
<text x="375" y="652" font-size="11" fill="#555555" text-anchor="start" font-weight="normal">60%</text>
<rect x="435" y="460" width="360" height="240" fill="#FFFFFF" stroke="#8A95A8" stroke-width="1" rx="6" ry="6"/>
<text x="455" y="482" font-size="13" fill="#15293F" text-anchor="start" font-weight="bold">AI portfolio by tier</text>
<path d="M 530 590 L 530.00 515.00 A 75 75 0 0 1 571.07 527.25 Z" fill="#C04A2B"/>
<path d="M 530 590 L 571.07 527.25 A 75 75 0 0 1 598.73 620.02 Z" fill="#E0A555"/>
<path d="M 530 590 L 598.73 620.02 A 75 75 0 0 1 456.05 602.52 Z" fill="#7BA8CC"/>
<path d="M 530 590 L 456.05 602.52 A 75 75 0 0 1 530.00 515.00 Z" fill="#3D8C5C"/>
<rect x="645" y="515" width="14" height="14" fill="#C04A2B" stroke="#C04A2B" stroke-width="0" rx="2" ry="2"/>
<text x="667" y="527" font-size="11" fill="#222222" text-anchor="start" font-weight="normal">Tier 1 — 38 apps</text>
<rect x="645" y="545" width="14" height="14" fill="#E0A555" stroke="#E0A555" stroke-width="0" rx="2" ry="2"/>
<text x="667" y="557" font-size="11" fill="#222222" text-anchor="start" font-weight="normal">Tier 2 — 92 apps</text>
<rect x="645" y="575" width="14" height="14" fill="#7BA8CC" stroke="#7BA8CC" stroke-width="0" rx="2" ry="2"/>
<text x="667" y="587" font-size="11" fill="#222222" text-anchor="start" font-weight="normal">Tier 3 — 168 apps</text>
<rect x="645" y="605" width="14" height="14" fill="#3D8C5C" stroke="#3D8C5C" stroke-width="0" rx="2" ry="2"/>
<text x="667" y="617" font-size="11" fill="#222222" text-anchor="start" font-weight="normal">Tier 4 — 114 apps</text>
<rect x="810" y="460" width="350" height="240" fill="#FFFFFF" stroke="#8A95A8" stroke-width="1" rx="6" ry="6"/>
<text x="830" y="482" font-size="13" fill="#15293F" text-anchor="start" font-weight="bold">Top 5 risk concentrations</text>
<text x="830" y="527" font-size="11" fill="#222222" text-anchor="start" font-weight="bold">ClinicalCo-Pilot</text>
<text x="960" y="527" font-size="10" fill="#C04A2B" text-anchor="start" font-weight="bold">Tier 1</text>
<rect x="830" y="533" width="280" height="8" fill="#F2F5F9" stroke="#8A95A8" stroke-width="0.3" rx="4" ry="4"/>
<rect x="830" y="533" width="266.0" height="8" fill="#C04A2B" stroke="#C04A2B" stroke-width="0" rx="4" ry="4"/>
<text x="830" y="557" font-size="11" fill="#222222" text-anchor="start" font-weight="bold">PriorAuth Bot</text>
<text x="960" y="557" font-size="10" fill="#C04A2B" text-anchor="start" font-weight="bold">Tier 1</text>
<rect x="830" y="563" width="280" height="8" fill="#F2F5F9" stroke="#8A95A8" stroke-width="0.3" rx="4" ry="4"/>
<rect x="830" y="563" width="243.6" height="8" fill="#C04A2B" stroke="#C04A2B" stroke-width="0" rx="4" ry="4"/>
<text x="830" y="587" font-size="11" fill="#222222" text-anchor="start" font-weight="bold">Imaging RAG</text>
<text x="960" y="587" font-size="10" fill="#C04A2B" text-anchor="start" font-weight="bold">Tier 1</text>
<rect x="830" y="593" width="280" height="8" fill="#F2F5F9" stroke="#8A95A8" stroke-width="0.3" rx="4" ry="4"/>
<rect x="830" y="593" width="201.6" height="8" fill="#C04A2B" stroke="#C04A2B" stroke-width="0" rx="4" ry="4"/>
<text x="830" y="617" font-size="11" fill="#222222" text-anchor="start" font-weight="bold">Schedule Agent</text>
<text x="960" y="617" font-size="10" fill="#E0A555" text-anchor="start" font-weight="bold">Tier 2</text>
<rect x="830" y="623" width="280" height="8" fill="#F2F5F9" stroke="#8A95A8" stroke-width="0.3" rx="4" ry="4"/>
<rect x="830" y="623" width="162.4" height="8" fill="#C04A2B" stroke="#C04A2B" stroke-width="0" rx="4" ry="4"/>
<text x="830" y="647" font-size="11" fill="#222222" text-anchor="start" font-weight="bold">Patient Comms</text>
<text x="960" y="647" font-size="10" fill="#C04A2B" text-anchor="start" font-weight="bold">Tier 1</text>
<rect x="830" y="653" width="280" height="8" fill="#F2F5F9" stroke="#8A95A8" stroke-width="0.3" rx="4" ry="4"/>
<rect x="830" y="653" width="154.0" height="8" fill="#C04A2B" stroke="#C04A2B" stroke-width="0" rx="4" ry="4"/>
</svg>