<svg xmlns="http://www.w3.org/2000/svg" width="1240" height="730" viewBox="0 0 1240 730" font-family="Arial, Helvetica, sans-serif">
<defs>
<marker id="arr" viewBox="0 0 10 10" refX="9" refY="5" markerWidth="7" markerHeight="7" orient="auto-start-reverse">
<path d="M 0 0 L 10 5 L 0 10 z" fill="#1F3A5F"/></marker>
<marker id="arrL" viewBox="0 0 10 10" refX="9" refY="5" markerWidth="7" markerHeight="7" orient="auto-start-reverse">
<path d="M 0 0 L 10 5 L 0 10 z" fill="#8A95A8"/></marker>
<marker id="arrA" viewBox="0 0 10 10" refX="9" refY="5" markerWidth="7" markerHeight="7" orient="auto-start-reverse">
<path d="M 0 0 L 10 5 L 0 10 z" fill="#C04A2B"/></marker>
</defs>
<defs><marker id="arrG" viewBox="0 0 10 10" refX="9" refY="5" markerWidth="7" markerHeight="7" orient="auto-start-reverse"><path d="M0 0 L10 5 L0 10 z" fill="#3D8C5C"/></marker><marker id="arrAm" viewBox="0 0 10 10" refX="9" refY="5" markerWidth="7" markerHeight="7" orient="auto-start-reverse"><path d="M0 0 L10 5 L0 10 z" fill="#E0A555"/></marker><marker id="arrP" viewBox="0 0 10 10" refX="9" refY="5" markerWidth="7" markerHeight="7" orient="auto-start-reverse"><path d="M0 0 L10 5 L0 10 z" fill="#6D52C9"/></marker></defs>
<rect x="0" y="0" width="1240" height="50" fill="#1F3A5F" stroke="#1F3A5F" stroke-width="0" rx="0" ry="0"/>
<text x="620.0" y="22" font-size="17" fill="#FFFFFF" text-anchor="middle" font-weight="bold">The Paved Road: Empowered AI Building, Governed by ai-protect</text>
<text x="620.0" y="40" font-size="10" fill="#EAF3FA" text-anchor="middle" font-weight="normal">Citizen builders take an idea to production with Claude — ai-protect auto-scans every SDLC stage and escalates to a human only when the risk tier earns it.   “Paved road &gt; gates.”</text>
<rect x="218.0" y="58" width="163.66666666666666" height="20" fill="#F2F5F9" stroke="#D6DCE5" stroke-width="1" rx="4" ry="4"/>
<text x="299.8333333333333" y="72" font-size="8.5" fill="#15293F" text-anchor="middle" font-weight="bold">IDEA</text>
<rect x="385.66666666666663" y="58" width="163.66666666666666" height="20" fill="#F2F5F9" stroke="#D6DCE5" stroke-width="1" rx="4" ry="4"/>
<text x="467.49999999999994" y="72" font-size="8.5" fill="#15293F" text-anchor="middle" font-weight="bold">BUILD WITH AI</text>
<line x1="383.66666666666663" y1="80" x2="383.66666666666663" y2="560" stroke="#D6DCE5" stroke-width="1" stroke-dasharray="2 5"/>
<rect x="553.3333333333333" y="58" width="163.66666666666666" height="20" fill="#F2F5F9" stroke="#D6DCE5" stroke-width="1" rx="4" ry="4"/>
<text x="635.1666666666666" y="72" font-size="8.5" fill="#15293F" text-anchor="middle" font-weight="bold">INTAKE + TIER</text>
<line x1="551.3333333333333" y1="80" x2="551.3333333333333" y2="560" stroke="#D6DCE5" stroke-width="1" stroke-dasharray="2 5"/>
<rect x="721.0" y="58" width="163.66666666666666" height="20" fill="#F2F5F9" stroke="#D6DCE5" stroke-width="1" rx="4" ry="4"/>
<text x="802.8333333333334" y="72" font-size="8.5" fill="#15293F" text-anchor="middle" font-weight="bold">SCAN  SAST/DAST/AI-RT</text>
<line x1="719.0" y1="80" x2="719.0" y2="560" stroke="#D6DCE5" stroke-width="1" stroke-dasharray="2 5"/>
<rect x="888.6666666666666" y="58" width="163.66666666666666" height="20" fill="#F2F5F9" stroke="#D6DCE5" stroke-width="1" rx="4" ry="4"/>
<text x="970.5" y="72" font-size="8.5" fill="#15293F" text-anchor="middle" font-weight="bold">GATE / APPROVE</text>
<line x1="886.6666666666666" y1="80" x2="886.6666666666666" y2="560" stroke="#D6DCE5" stroke-width="1" stroke-dasharray="2 5"/>
<rect x="1056.3333333333333" y="58" width="163.66666666666666" height="20" fill="#F2F5F9" stroke="#D6DCE5" stroke-width="1" rx="4" ry="4"/>
<text x="1138.1666666666665" y="72" font-size="8.5" fill="#15293F" text-anchor="middle" font-weight="bold">DEPLOY + MONITOR</text>
<line x1="1054.3333333333333" y1="80" x2="1054.3333333333333" y2="560" stroke="#D6DCE5" stroke-width="1" stroke-dasharray="2 5"/>
<rect x="18" y="80" width="1204" height="104" fill="#F7F9FB" stroke="#D6DCE5" stroke-width="1" rx="6" ry="6"/>
<rect x="18" y="80" width="192" height="104" fill="#2C547F" stroke="#15293F" stroke-width="1" rx="6" ry="6"/>
<text x="114.0" y="129.0" font-size="11" fill="#FFFFFF" text-anchor="middle" font-weight="bold">Citizen Builder</text>
<text x="114.0" y="145.0" font-size="8.5" fill="#E6EEF6" text-anchor="middle" font-weight="normal">non-dev employee</text>
<rect x="18" y="188" width="1204" height="104" fill="#FCF3E6" stroke="#D6DCE5" stroke-width="1" rx="6" ry="6"/>
<rect x="18" y="188" width="192" height="104" fill="#9C6A1E" stroke="#15293F" stroke-width="1" rx="6" ry="6"/>
<text x="114.0" y="237.0" font-size="11" fill="#FFFFFF" text-anchor="middle" font-weight="bold">AppSec / Security</text>
<text x="114.0" y="253.0" font-size="8.5" fill="#E6EEF6" text-anchor="middle" font-weight="normal">human — Tier 1-2 only</text>
<rect x="18" y="296" width="1204" height="104" fill="#EEF4FA" stroke="#D6DCE5" stroke-width="1" rx="6" ry="6"/>
<rect x="18" y="296" width="192" height="104" fill="#2C547F" stroke="#15293F" stroke-width="1" rx="6" ry="6"/>
<text x="114.0" y="345.0" font-size="11" fill="#FFFFFF" text-anchor="middle" font-weight="bold">Platform &amp; AI Gov</text>
<text x="114.0" y="361.0" font-size="8.5" fill="#E6EEF6" text-anchor="middle" font-weight="normal">owns the paved road</text>
<rect x="18" y="404" width="1204" height="156" fill="#E7F3EB" stroke="#D6DCE5" stroke-width="1" rx="6" ry="6"/>
<rect x="18" y="404" width="192" height="156" fill="#2E6B45" stroke="#15293F" stroke-width="1" rx="6" ry="6"/>
<text x="114.0" y="479.0" font-size="11" fill="#FFFFFF" text-anchor="middle" font-weight="bold">ai-protect automation</text>
<text x="114.0" y="495.0" font-size="8.5" fill="#E6EEF6" text-anchor="middle" font-weight="normal">auto — no human</text>
<rect x="18" y="404" width="1204" height="156" fill="none" stroke="#3D8C5C" stroke-width="2.5" rx="6" ry="6"/>
<rect x="226.06" y="100" width="147.54666666666665" height="64" fill="#FFF4E5" stroke="#C04A2B" stroke-width="2" rx="5" ry="5"/>
<text x="299.8333333333333" y="117" font-size="10" fill="#C04A2B" text-anchor="middle" font-weight="bold">Idea / business need</text>
<text x="299.8333333333333" y="130" font-size="7.5" fill="#555555" text-anchor="middle" font-weight="normal">automation · app · agent ·</text>
<text x="299.8333333333333" y="140" font-size="7.5" fill="#555555" text-anchor="middle" font-weight="normal">SaaS replacement</text>
<rect x="393.72666666666663" y="100" width="147.54666666666665" height="64" fill="#ECE6FA" stroke="#6D52C9" stroke-width="1.2" rx="5" ry="5"/>
<text x="467.49999999999994" y="117" font-size="10" fill="#2a1f55" text-anchor="middle" font-weight="bold">Build with Claude</text>
<text x="467.49999999999994" y="130" font-size="7.5" fill="#555555" text-anchor="middle" font-weight="normal">+ Copilot · paved-road</text>
<text x="467.49999999999994" y="140" font-size="7.5" fill="#555555" text-anchor="middle" font-weight="normal">template</text>
<rect x="561.3933333333333" y="100" width="147.54666666666665" height="64" fill="#FFFFFF" stroke="#8A95A8" stroke-width="1.2" rx="5" ry="5"/>
<text x="635.1666666666666" y="117" font-size="10" fill="#222222" text-anchor="middle" font-weight="bold">Fill scan manifest</text>
<text x="635.1666666666666" y="130" font-size="7.5" fill="#555555" text-anchor="middle" font-weight="normal">open Azure DevOps PR</text>
<rect x="729.0600000000001" y="100" width="147.54666666666665" height="64" fill="#FFFFFF" stroke="#8A95A8" stroke-width="1.2" rx="5" ry="5"/>
<text x="802.8333333333334" y="117" font-size="10" fill="#222222" text-anchor="middle" font-weight="bold">Fix from findings</text>
<text x="802.8333333333334" y="129" font-size="10" fill="#222222" text-anchor="middle" font-weight="bold">card</text>
<text x="802.8333333333334" y="142" font-size="7.5" fill="#555555" text-anchor="middle" font-weight="normal">apply auto-change · re-push</text>
<rect x="1064.3933333333332" y="100" width="147.54666666666665" height="64" fill="#FFFFFF" stroke="#8A95A8" stroke-width="1.2" rx="5" ry="5"/>
<text x="1138.1666666666665" y="117" font-size="10" fill="#222222" text-anchor="middle" font-weight="bold">Self-serve deploy</text>
<text x="1138.1666666666665" y="130" font-size="7.5" fill="#555555" text-anchor="middle" font-weight="normal">Tier 3-4 · no human in the</text>
<text x="1138.1666666666665" y="140" font-size="7.5" fill="#555555" text-anchor="middle" font-weight="normal">loop</text>
<text x="467.49999999999994" y="238" font-size="9" fill="#555555" text-anchor="middle" font-weight="italic">no human gate on most of the road</text>
<rect x="729.0600000000001" y="208" width="147.54666666666665" height="64" fill="#FFFFFF" stroke="#8A95A8" stroke-width="1.2" rx="5" ry="5"/>
<text x="802.8333333333334" y="225" font-size="10" fill="#222222" text-anchor="middle" font-weight="bold">Manual AI red team</text>
<text x="802.8333333333334" y="238" font-size="7.5" fill="#555555" text-anchor="middle" font-weight="normal">forced for Tier 1-2</text>
<rect x="896.7266666666667" y="208" width="147.54666666666665" height="64" fill="#FFF4E5" stroke="#E0A555" stroke-width="2" rx="5" ry="5"/>
<text x="970.5" y="225" font-size="10" fill="#5a3d08" text-anchor="middle" font-weight="bold">Approve / reject</text>
<text x="970.5" y="237" font-size="10" fill="#5a3d08" text-anchor="middle" font-weight="bold">change</text>
<text x="970.5" y="250" font-size="7.5" fill="#555555" text-anchor="middle" font-weight="normal">human OR automated-policy</text>
<text x="970.5" y="260" font-size="7.5" fill="#555555" text-anchor="middle" font-weight="normal">approval · Teams</text>
<rect x="1064.3933333333332" y="208" width="147.54666666666665" height="64" fill="#FFFFFF" stroke="#8A95A8" stroke-width="1.2" rx="5" ry="5"/>
<text x="1138.1666666666665" y="225" font-size="10" fill="#222222" text-anchor="middle" font-weight="bold">Triage</text>
<text x="1138.1666666666665" y="237" font-size="10" fill="#222222" text-anchor="middle" font-weight="bold">Defender/Sentinel</text>
<text x="1138.1666666666665" y="250" font-size="7.5" fill="#555555" text-anchor="middle" font-weight="normal">act on prod signal</text>
<rect x="226.06" y="316" width="147.54666666666665" height="64" fill="#FFFFFF" stroke="#8A95A8" stroke-width="1.2" rx="5" ry="5"/>
<text x="299.8333333333333" y="333" font-size="10" fill="#222222" text-anchor="middle" font-weight="bold">Paved-road templates</text>
<text x="299.8333333333333" y="346" font-size="7.5" fill="#555555" text-anchor="middle" font-weight="normal">blessed starting points</text>
<rect x="393.72666666666663" y="316" width="147.54666666666665" height="64" fill="#ECE6FA" stroke="#6D52C9" stroke-width="1.2" rx="5" ry="5"/>
<text x="467.49999999999994" y="333" font-size="10" fill="#2a1f55" text-anchor="middle" font-weight="bold">Sanctioned LLM</text>
<text x="467.49999999999994" y="345" font-size="10" fill="#2a1f55" text-anchor="middle" font-weight="bold">gateway</text>
<text x="467.49999999999994" y="358" font-size="7.5" fill="#555555" text-anchor="middle" font-weight="normal">Claude primary + Copilot</text>
<rect x="561.3933333333333" y="316" width="147.54666666666665" height="64" fill="#FFFFFF" stroke="#8A95A8" stroke-width="1.2" rx="5" ry="5"/>
<text x="635.1666666666666" y="333" font-size="10" fill="#222222" text-anchor="middle" font-weight="bold">Tier policy +</text>
<text x="635.1666666666666" y="345" font-size="10" fill="#222222" text-anchor="middle" font-weight="bold">manifest schema</text>
<text x="635.1666666666666" y="358" font-size="7.5" fill="#555555" text-anchor="middle" font-weight="normal">PHI / clinical / external →</text>
<text x="635.1666666666666" y="368" font-size="7.5" fill="#555555" text-anchor="middle" font-weight="normal">Tier 1</text>
<rect x="1064.3933333333332" y="316" width="147.54666666666665" height="64" fill="#C8E0CF" stroke="#3D8C5C" stroke-width="2" rx="5" ry="5"/>
<text x="1138.1666666666665" y="333" font-size="10" fill="#1c3a26" text-anchor="middle" font-weight="bold">Sanctioned deploy</text>
<text x="1138.1666666666665" y="345" font-size="10" fill="#1c3a26" text-anchor="middle" font-weight="bold">ring</text>
<text x="1138.1666666666665" y="358" font-size="7.5" fill="#555555" text-anchor="middle" font-weight="normal">only approved builds released</text>
<text x="299.8333333333333" y="474" font-size="9" fill="#2E6B45" text-anchor="middle" font-weight="bold">8-stage pipeline runs</text>
<text x="299.8333333333333" y="487" font-size="9" fill="#2E6B45" text-anchor="middle" font-weight="bold">on every commit  →</text>
<rect x="561.3933333333333" y="424" width="147.54666666666665" height="60" fill="#C8E0CF" stroke="#3D8C5C" stroke-width="2" rx="5" ry="5"/>
<text x="635.1666666666666" y="441" font-size="10" fill="#1c3a26" text-anchor="middle" font-weight="bold">Discovery / Intake</text>
<text x="635.1666666666666" y="454" font-size="7.5" fill="#555555" text-anchor="middle" font-weight="normal">manifest validator · G1</text>
<rect x="561.3933333333333" y="492" width="147.54666666666665" height="60" fill="#FFF4E5" stroke="#C04A2B" stroke-width="2" rx="5" ry="5"/>
<text x="635.1666666666666" y="509" font-size="10" fill="#C04A2B" text-anchor="middle" font-weight="bold">Triage → Tier 1-4</text>
<text x="635.1666666666666" y="522" font-size="7.5" fill="#555555" text-anchor="middle" font-weight="normal">app RISK tier (1=highest) · ★</text>
<text x="635.1666666666666" y="532" font-size="7.5" fill="#555555" text-anchor="middle" font-weight="normal">FORK</text>
<rect x="729.0600000000001" y="424" width="147.54666666666665" height="60" fill="#C8E0CF" stroke="#3D8C5C" stroke-width="2" rx="5" ry="5"/>
<text x="802.8333333333334" y="441" font-size="10" fill="#1c3a26" text-anchor="middle" font-weight="bold">Static SAST +</text>
<text x="802.8333333333334" y="453" font-size="10" fill="#1c3a26" text-anchor="middle" font-weight="bold">secrets</text>
<text x="802.8333333333334" y="466" font-size="7.5" fill="#555555" text-anchor="middle" font-weight="normal">blocks Critical / High</text>
<text x="802.8333333333334" y="476" font-size="7.5" fill="#555555" text-anchor="middle" font-weight="normal">findings · G2</text>
<rect x="729.0600000000001" y="492" width="147.54666666666665" height="60" fill="#C8E0CF" stroke="#3D8C5C" stroke-width="2" rx="5" ry="5"/>
<text x="802.8333333333334" y="509" font-size="10" fill="#1c3a26" text-anchor="middle" font-weight="bold">Dynamic DAST + AI</text>
<text x="802.8333333333334" y="521" font-size="10" fill="#1c3a26" text-anchor="middle" font-weight="bold">Red Team</text>
<text x="802.8333333333334" y="534" font-size="7.5" fill="#555555" text-anchor="middle" font-weight="normal">blocks Critical / High ·</text>
<text x="802.8333333333334" y="544" font-size="7.5" fill="#555555" text-anchor="middle" font-weight="normal">garak/PyRIT · G3</text>
<rect x="896.7266666666667" y="424" width="147.54666666666665" height="60" fill="#ECE6FA" stroke="#6D52C9" stroke-width="1.2" rx="5" ry="5"/>
<text x="970.5" y="441" font-size="10" fill="#2a1f55" text-anchor="middle" font-weight="bold">Auto-remediate</text>
<text x="970.5" y="454" font-size="7.5" fill="#555555" text-anchor="middle" font-weight="normal">findings → proposed changes</text>
<rect x="896.7266666666667" y="492" width="147.54666666666665" height="60" fill="#C8E0CF" stroke="#3D8C5C" stroke-width="2" rx="5" ry="5"/>
<text x="970.5" y="509" font-size="10" fill="#1c3a26" text-anchor="middle" font-weight="bold">Tier 3-4</text>
<text x="970.5" y="521" font-size="10" fill="#1c3a26" text-anchor="middle" font-weight="bold">auto-approve</text>
<text x="970.5" y="534" font-size="7.5" fill="#555555" text-anchor="middle" font-weight="normal">all blocking pass · G4</text>
<rect x="1064.3933333333332" y="424" width="147.54666666666665" height="128" fill="#FFF4E5" stroke="#C04A2B" stroke-width="2" rx="5" ry="5"/>
<text x="1138.1666666666665" y="441" font-size="10" fill="#C04A2B" text-anchor="middle" font-weight="bold">Continuous</text>
<text x="1138.1666666666665" y="453" font-size="10" fill="#C04A2B" text-anchor="middle" font-weight="bold">monitoring +</text>
<text x="1138.1666666666665" y="466" font-size="7.5" fill="#555555" text-anchor="middle" font-weight="normal">re-tier on drift / KEV intel ·</text>
<text x="1138.1666666666665" y="476" font-size="7.5" fill="#555555" text-anchor="middle" font-weight="normal">audit trail</text>
<rect x="18" y="580" width="1204" height="78" fill="#EDF0F4" stroke="#15293F" stroke-width="1.2" rx="6" ry="6"/>
<text x="30" y="596" font-size="10" fill="#15293F" text-anchor="start" font-weight="bold">MICROSOFT &amp; SANCTIONED AI RAILS   (the paved infrastructure — using it IS the enforcement)</text>
<rect x="34.0" y="606" width="287.0" height="44" fill="#FFFFFF" stroke="#456A92" stroke-width="1" rx="5" ry="5"/>
<text x="177.5" y="624" font-size="9" fill="#15293F" text-anchor="middle" font-weight="bold">MCP farm + agent runtime</text>
<text x="177.5" y="638" font-size="7.5" fill="#555555" text-anchor="middle" font-weight="normal">vetted tools · sandboxed</text>
<rect x="329.0" y="606" width="287.0" height="44" fill="#FFFFFF" stroke="#456A92" stroke-width="1" rx="5" ry="5"/>
<text x="472.5" y="624" font-size="9" fill="#15293F" text-anchor="middle" font-weight="bold">Azure DevOps Repos / Boards / Pipelines</text>
<text x="472.5" y="638" font-size="7.5" fill="#555555" text-anchor="middle" font-weight="normal">manifest in · CI gates run here</text>
<rect x="624.0" y="606" width="287.0" height="44" fill="#FFFFFF" stroke="#456A92" stroke-width="1" rx="5" ry="5"/>
<text x="767.5" y="624" font-size="9" fill="#15293F" text-anchor="middle" font-weight="bold">Defender + Sentinel</text>
<text x="767.5" y="638" font-size="7.5" fill="#555555" text-anchor="middle" font-weight="normal">runtime telemetry</text>
<rect x="919.0" y="606" width="287.0" height="44" fill="#FFFFFF" stroke="#456A92" stroke-width="1" rx="5" ry="5"/>
<text x="1062.5" y="624" font-size="9" fill="#15293F" text-anchor="middle" font-weight="bold">Microsoft Teams</text>
<text x="1062.5" y="638" font-size="7.5" fill="#555555" text-anchor="middle" font-weight="normal">approvals + alerts</text>
<line x1="375.2833333333333" y1="132.0" x2="392.04999999999995" y2="132.0" stroke="#1F3A5F" stroke-width="1.6" marker-end="url(#arr)"/>
<line x1="542.9499999999999" y1="132.0" x2="559.7166666666666" y2="132.0" stroke="#1F3A5F" stroke-width="1.6" marker-end="url(#arr)"/>
<line x1="710.6166666666667" y1="132.0" x2="727.3833333333333" y2="132.0" stroke="#1F3A5F" stroke-width="1.6" marker-end="url(#arr)"/>
<line x1="635.1666666666666" y1="164" x2="635.1666666666666" y2="424" stroke="#8A95A8" stroke-width="1.4" stroke-dasharray="4 3" marker-end="url(#arr)"/>
<path d="M 970.5 424 C 970.5 300, 802.8333333333334 300, 802.8333333333334 164" fill="none" stroke="#6D52C9" stroke-width="1.5" stroke-dasharray="4 3" marker-end="url(#arrP)"/>
<path d="M 1030.86 522.0 C 1113.0166666666664 522.0, 1138.1666666666665 360, 1138.1666666666665 164" fill="none" stroke="#3D8C5C" stroke-width="2.2" marker-end="url(#arrG)"/>
<line x1="970.5" y1="424" x2="970.5" y2="272" stroke="#E0A555" stroke-width="2.2" marker-end="url(#arrAm)"/>
<path d="M 1037.5666666666666 240.0 C 1121.3999999999999 240.0, 1138.1666666666665 300, 1138.1666666666665 316" fill="none" stroke="#E0A555" stroke-width="1.6" marker-end="url(#arrAm)"/>
<path d="M 1138.1666666666665 560 V 570 H 635.1666666666666 V 552" fill="none" stroke="#3D8C5C" stroke-width="1.6" stroke-dasharray="5 3" marker-end="url(#arrG)"/>
<text x="886.6666666666665" y="567" font-size="8.5" fill="#2E6B45" text-anchor="middle" font-weight="bold">↺ continuous validation — re-tier on drift / new KEV intel</text>
<text x="18" y="690" font-size="9" fill="#222222" text-anchor="start" font-weight="bold">Legend:</text>
<rect x="76" y="681" width="16" height="12" fill="#C8E0CF" stroke="#3D8C5C" stroke-width="1.4" rx="2" ry="2"/>
<text x="98" y="691" font-size="9" fill="#222222" text-anchor="start" font-weight="normal">AUTO gate (machine-enforced)</text>
<rect x="268.79999999999995" y="681" width="16" height="12" fill="#FFF4E5" stroke="#E0A555" stroke-width="1.4" rx="2" ry="2"/>
<text x="290.79999999999995" y="691" font-size="9" fill="#222222" text-anchor="start" font-weight="normal">Human / auto-policy approval — Tier 1-2</text>
<rect x="523.1999999999999" y="681" width="16" height="12" fill="#ECE6FA" stroke="#6D52C9" stroke-width="1.4" rx="2" ry="2"/>
<text x="545.1999999999999" y="691" font-size="9" fill="#222222" text-anchor="start" font-weight="normal">AI surface (Claude / Copilot)</text>
<rect x="721.5999999999999" y="681" width="16" height="12" fill="#FFF4E5" stroke="#C04A2B" stroke-width="1.4" rx="2" ry="2"/>
<text x="743.5999999999999" y="691" font-size="9" fill="#222222" text-anchor="start" font-weight="normal">key callout / tier fork</text>
<text x="1222" y="691" font-size="9" fill="#555555" text-anchor="end" font-weight="normal">Rows = WHO acts (Builder · AppSec · Governance · ai-protect)</text>
</svg>