<svg xmlns="http://www.w3.org/2000/svg" width="1280" height="738" viewBox="0 0 1280 738" font-family="Arial, Helvetica, sans-serif">
<defs>
<marker id="arr" viewBox="0 0 10 10" refX="9" refY="5" markerWidth="7" markerHeight="7" orient="auto-start-reverse">
<path d="M 0 0 L 10 5 L 0 10 z" fill="#1F3A5F"/></marker>
<marker id="arrL" viewBox="0 0 10 10" refX="9" refY="5" markerWidth="7" markerHeight="7" orient="auto-start-reverse">
<path d="M 0 0 L 10 5 L 0 10 z" fill="#8A95A8"/></marker>
<marker id="arrA" viewBox="0 0 10 10" refX="9" refY="5" markerWidth="7" markerHeight="7" orient="auto-start-reverse">
<path d="M 0 0 L 10 5 L 0 10 z" fill="#C04A2B"/></marker>
</defs>
<defs><marker id="arrGr" viewBox="0 0 10 10" refX="9" refY="5" markerWidth="7" markerHeight="7" orient="auto-start-reverse"><path d="M0 0 L10 5 L0 10 z" fill="#1E8E4E"/></marker><marker id="arrFb" viewBox="0 0 10 10" refX="9" refY="5" markerWidth="7" markerHeight="7" orient="auto-start-reverse"><path d="M0 0 L10 5 L0 10 z" fill="#7A3FB5"/></marker></defs>
<rect x="0" y="0" width="1280" height="738" fill="#FFFFFF" stroke="#FFFFFF" stroke-width="0" rx="0" ry="0"/>
<rect x="0" y="0" width="1280" height="52" fill="#1F3A5F" stroke="#1F3A5F" stroke-width="0" rx="0" ry="0"/>
<text x="640.0" y="22" font-size="18" fill="#FFFFFF" text-anchor="middle" font-weight="bold">AI Organizational Transformation — Empowered Building → Governed AI-Production</text>
<text x="640.0" y="43" font-size="13.5" fill="#FFFFFF" text-anchor="middle" font-weight="bold">Anyone can build with AI; everything ships through one governed pipeline into the sanctioned ai-production zone.</text>
<rect x="22" y="84" width="304" height="330" fill="#F2F5F9" stroke="#1F3A5F" stroke-width="1.5" rx="8" ry="8"/>
<text x="174.0" y="106" font-size="12" fill="#15293F" text-anchor="middle" font-weight="bold">CONTROLLED BUILD ENVIRONMENT</text>
<text x="174.0" y="122" font-size="11" fill="#555555" text-anchor="middle" font-weight="bold">sanctioned · governed · paved road</text>
<rect x="36" y="136" width="132" height="50" fill="#FFFFFF" stroke="#8A95A8" stroke-width="1" rx="5" ry="5"/>
<text x="102.0" y="155" font-size="9" fill="#15293F" text-anchor="middle" font-weight="bold">Citizen Builder</text>
<text x="102.0" y="170" font-size="10" fill="#222222" text-anchor="middle" font-weight="bold">Clinical ops</text>
<rect x="176" y="136" width="132" height="50" fill="#FFFFFF" stroke="#8A95A8" stroke-width="1" rx="5" ry="5"/>
<text x="242.0" y="155" font-size="9" fill="#15293F" text-anchor="middle" font-weight="bold">Citizen Builder</text>
<text x="242.0" y="170" font-size="10" fill="#222222" text-anchor="middle" font-weight="bold">Finance</text>
<rect x="36" y="194" width="132" height="50" fill="#FFFFFF" stroke="#8A95A8" stroke-width="1" rx="5" ry="5"/>
<text x="102.0" y="213" font-size="9" fill="#15293F" text-anchor="middle" font-weight="bold">Citizen Builder</text>
<text x="102.0" y="228" font-size="10" fill="#222222" text-anchor="middle" font-weight="bold">Revenue cycle</text>
<rect x="176" y="194" width="132" height="50" fill="#FFFFFF" stroke="#8A95A8" stroke-width="1" rx="5" ry="5"/>
<text x="242.0" y="213" font-size="9" fill="#15293F" text-anchor="middle" font-weight="bold">Citizen Builder</text>
<text x="242.0" y="228" font-size="10" fill="#222222" text-anchor="middle" font-weight="bold">Marketing</text>
<rect x="36" y="252" width="132" height="50" fill="#FFFFFF" stroke="#8A95A8" stroke-width="1" rx="5" ry="5"/>
<text x="102.0" y="271" font-size="9" fill="#15293F" text-anchor="middle" font-weight="bold">Citizen Builder</text>
<text x="102.0" y="286" font-size="10" fill="#222222" text-anchor="middle" font-weight="bold">Analytics</text>
<rect x="176" y="252" width="132" height="50" fill="#FFFFFF" stroke="#8A95A8" stroke-width="1" rx="5" ry="5"/>
<text x="242.0" y="271" font-size="9" fill="#15293F" text-anchor="middle" font-weight="bold">Citizen Builder</text>
<text x="242.0" y="286" font-size="10" fill="#222222" text-anchor="middle" font-weight="bold">Support</text>
<text x="174.0" y="315" font-size="10" fill="#555555" text-anchor="middle" font-weight="bold">builds: automations · apps · agents · SaaS replacements</text>
<rect x="36" y="326" width="276" height="32" fill="#E3F6FB" stroke="#0E7490" stroke-width="1.4" rx="5" ry="5" stroke-dasharray="6 3"/>
<text x="174.0" y="340" font-size="9.5" fill="#0B5566" text-anchor="middle" font-weight="bold">⊕ PROPOSED · Microsoft Foundry</text>
<text x="174.0" y="352" font-size="8.5" fill="#0E7490" text-anchor="middle" font-weight="bold">governed model / agent build platform</text>
<rect x="36" y="374" width="276" height="30" fill="#D8F0DF" stroke="#1E8E4E" stroke-width="1.2" rx="5" ry="5"/>
<text x="174.0" y="394" font-size="9.5" fill="#15692F" text-anchor="middle" font-weight="bold">Build with Claude (primary) · Copilot · paved-road templates</text>
<rect x="364" y="250" width="152" height="116" fill="#FFF4E5" stroke="#C04A2B" stroke-width="2.5" rx="8" ry="8"/>
<text x="440.0" y="274" font-size="12" fill="#C04A2B" text-anchor="middle" font-weight="bold">SINGLE</text>
<text x="440.0" y="291" font-size="10.5" fill="#C04A2B" text-anchor="middle" font-weight="bold">SANCTIONED COMMIT</text>
<text x="440.0" y="318" font-size="11" fill="#222222" text-anchor="middle" font-weight="bold">Azure Repos</text>
<text x="440.0" y="337" font-size="10.5" fill="#555555" text-anchor="middle" font-weight="bold">all AI code lands here</text>
<path d="M 168 161.0 C 208 161.0, 318 308.0, 362 308.0" fill="none" stroke="#8A95A8" stroke-width="1.3" marker-end="url(#arr)"/>
<path d="M 308 161.0 C 348 161.0, 318 308.0, 362 308.0" fill="none" stroke="#8A95A8" stroke-width="1.3" marker-end="url(#arr)"/>
<path d="M 168 219.0 C 208 219.0, 318 308.0, 362 308.0" fill="none" stroke="#8A95A8" stroke-width="1.3" marker-end="url(#arr)"/>
<path d="M 308 219.0 C 348 219.0, 318 308.0, 362 308.0" fill="none" stroke="#8A95A8" stroke-width="1.3" marker-end="url(#arr)"/>
<path d="M 168 277.0 C 208 277.0, 318 308.0, 362 308.0" fill="none" stroke="#8A95A8" stroke-width="1.3" marker-end="url(#arr)"/>
<path d="M 308 277.0 C 348 277.0, 318 308.0, 362 308.0" fill="none" stroke="#8A95A8" stroke-width="1.3" marker-end="url(#arr)"/>
<rect x="548" y="234" width="468" height="150" fill="#243B55" stroke="#1E8E4E" stroke-width="2.5" rx="8" ry="8"/>
<text x="782.0" y="259" font-size="16" fill="#FFFFFF" text-anchor="middle" font-weight="bold">ai-protect PIPELINE</text>
<text x="782.0" y="277" font-size="11.5" fill="#EAF3FA" text-anchor="middle" font-weight="bold">scan → fix → verify → gate  (tier-aware: auto or human approval)</text>
<line x1="592.0" y1="326" x2="622.2857142857143" y2="326" stroke="#EAF3FA" stroke-width="2" marker-end="url(#arr)"/>
<circle cx="578.0" cy="326" r="14" fill="#D8F0DF" stroke="#1E8E4E" stroke-width="2"/>
<text x="578.0" y="330" font-size="12" fill="#15692F" text-anchor="middle" font-weight="bold">0</text>
<line x1="650.2857142857143" y1="326" x2="680.5714285714287" y2="326" stroke="#EAF3FA" stroke-width="2" marker-end="url(#arr)"/>
<circle cx="636.2857142857143" cy="326" r="14" fill="#D8F0DF" stroke="#1E8E4E" stroke-width="2"/>
<text x="636.2857142857143" y="330" font-size="12" fill="#15692F" text-anchor="middle" font-weight="bold">1</text>
<line x1="708.5714285714286" y1="326" x2="738.8571428571429" y2="326" stroke="#EAF3FA" stroke-width="2" marker-end="url(#arr)"/>
<circle cx="694.5714285714286" cy="326" r="14" fill="#D8F0DF" stroke="#1E8E4E" stroke-width="2"/>
<text x="694.5714285714286" y="330" font-size="12" fill="#15692F" text-anchor="middle" font-weight="bold">2</text>
<line x1="766.8571428571429" y1="326" x2="797.1428571428572" y2="326" stroke="#EAF3FA" stroke-width="2" marker-end="url(#arr)"/>
<circle cx="752.8571428571429" cy="326" r="14" fill="#D8F0DF" stroke="#1E8E4E" stroke-width="2"/>
<text x="752.8571428571429" y="330" font-size="12" fill="#15692F" text-anchor="middle" font-weight="bold">3</text>
<line x1="825.1428571428571" y1="326" x2="855.4285714285714" y2="326" stroke="#EAF3FA" stroke-width="2" marker-end="url(#arr)"/>
<circle cx="811.1428571428571" cy="326" r="14" fill="#D8F0DF" stroke="#1E8E4E" stroke-width="2"/>
<text x="811.1428571428571" y="330" font-size="12" fill="#15692F" text-anchor="middle" font-weight="bold">4</text>
<line x1="883.4285714285714" y1="326" x2="913.7142857142858" y2="326" stroke="#EAF3FA" stroke-width="2" marker-end="url(#arr)"/>
<circle cx="869.4285714285714" cy="326" r="14" fill="#D8F0DF" stroke="#1E8E4E" stroke-width="2"/>
<text x="869.4285714285714" y="330" font-size="12" fill="#15692F" text-anchor="middle" font-weight="bold">5</text>
<line x1="941.7142857142858" y1="326" x2="972.0000000000001" y2="326" stroke="#EAF3FA" stroke-width="2" marker-end="url(#arr)"/>
<circle cx="927.7142857142858" cy="326" r="14" fill="#D8F0DF" stroke="#1E8E4E" stroke-width="2"/>
<text x="927.7142857142858" y="330" font-size="12" fill="#15692F" text-anchor="middle" font-weight="bold">6</text>
<circle cx="986.0" cy="326" r="14" fill="#D8F0DF" stroke="#1E8E4E" stroke-width="2"/>
<text x="986.0" y="330" font-size="12" fill="#15692F" text-anchor="middle" font-weight="bold">7</text>
<rect x="560" y="350" width="124" height="20" fill="#D8F0DF" stroke="#1E8E4E" stroke-width="1" rx="10" ry="10"/>
<text x="622" y="364" font-size="10" fill="#000000" text-anchor="middle" font-weight="bold">Stage 0 kicks off</text>
<rect x="880" y="350" width="124" height="20" fill="#D8F0DF" stroke="#1E8E4E" stroke-width="1" rx="10" ry="10"/>
<text x="942" y="364" font-size="10" fill="#000000" text-anchor="middle" font-weight="bold">Stage 7 completes</text>
<line x1="516" y1="308.0" x2="546" y2="326" stroke="#C04A2B" stroke-width="2.5" marker-end="url(#arrA)"/>
<text x="532.0" y="220" font-size="11.5" fill="#C04A2B" text-anchor="middle" font-weight="bold">commit</text>
<text x="532.0" y="233" font-size="11.5" fill="#C04A2B" text-anchor="middle" font-weight="bold">kicks off</text>
<rect x="1082" y="240" width="176" height="204" fill="#DCF0E4" stroke="#13643A" stroke-width="3" rx="10" ry="10"/>
<text x="1170.0" y="264" font-size="15" fill="#13643A" text-anchor="middle" font-weight="bold">AI-PRODUCTION</text>
<text x="1170.0" y="281" font-size="12" fill="#13643A" text-anchor="middle" font-weight="bold">ENVIRONMENT</text>
<text x="1170.0" y="298" font-size="10" fill="#222222" text-anchor="middle" font-weight="bold">sanctioned network zone</text>
<rect x="1092" y="304" width="156" height="74" fill="#D8F0DF" stroke="#1E8E4E" stroke-width="1.4" rx="6" ry="6"/>
<text x="1170.0" y="319" font-size="9.5" fill="#15692F" text-anchor="middle" font-weight="bold">● CONTINUOUS ASSURANCE</text>
<text x="1170.0" y="336" font-size="8.5" fill="#222222" text-anchor="middle" font-weight="bold">AI red-team · SAST · DAST</text>
<text x="1170.0" y="353" font-size="9.5" fill="#0B5566" text-anchor="middle" font-weight="bold">⊕ Varonis Atlas · AI DDR</text>
<text x="1170.0" y="369" font-size="7.5" fill="#555555" text-anchor="middle" font-weight="bold">always-on, in production</text>
<rect x="1092" y="384" width="156" height="54" fill="#E3F6FB" stroke="#0E7490" stroke-width="1.4" rx="6" ry="6" stroke-dasharray="6 3"/>
<text x="1170.0" y="399" font-size="9" fill="#0B5566" text-anchor="middle" font-weight="bold">◆ AGENT GOVERNANCE</text>
<text x="1170.0" y="415" font-size="10" fill="#0B5566" text-anchor="middle" font-weight="bold">⊕ MS Agent365</text>
<text x="1170.0" y="429" font-size="7.5" fill="#0E7490" text-anchor="middle" font-weight="bold">identity · registry · lifecycle</text>
<line x1="1016" y1="326" x2="1080" y2="274" stroke="#1E8E4E" stroke-width="2.5" marker-end="url(#arrGr)"/>
<text x="1049.0" y="220" font-size="11.5" fill="#15692F" text-anchor="middle" font-weight="bold">launch /</text>
<text x="1049.0" y="233" font-size="11.5" fill="#15692F" text-anchor="middle" font-weight="bold">deploy</text>
<path d="M 1170.0 444 L 1170.0 458 L 782.0 458 L 782.0 386" fill="none" stroke="#7A3FB5" stroke-width="2.4" stroke-dasharray="7 4" marker-end="url(#arrFb)"/>
<text x="976.0" y="451" font-size="10" fill="#7A3FB5" text-anchor="middle" font-weight="bold">findings → DefectDojo → reopen Stage 0–7  (rescan · re-gate · remediate)</text>
<rect x="22" y="476" width="1236" height="100" fill="#F2F5F9" stroke="#1F3A5F" stroke-width="1.5" rx="8" ry="8"/>
<text x="36" y="498" font-size="12" fill="#15293F" text-anchor="start" font-weight="bold">TIER-AWARE GATE</text>
<text x="172" y="498" font-size="10.5" fill="#555555" text-anchor="start" font-weight="bold">— the same pipeline runs for every build; the tier decides whether it ships automatically or waits for a human.</text>
<rect x="36.0" y="508" width="293.0" height="56" fill="#F7DAD2" stroke="#C04A2B" stroke-width="1.4" rx="6" ry="6"/>
<text x="48.0" y="528" font-size="11.5" fill="#C04A2B" text-anchor="start" font-weight="bold">TIER 1 · Critical</text>
<text x="48.0" y="544" font-size="10.5" fill="#222222" text-anchor="start" font-weight="bold">regulated · PHI · customer-facing</text>
<text x="48.0" y="559" font-size="10.5" fill="#C04A2B" text-anchor="start" font-weight="bold">→ HUMAN APPROVAL to ship</text>
<rect x="341.0" y="508" width="293.0" height="56" fill="#FFF1DD" stroke="#E0A555" stroke-width="1.4" rx="6" ry="6"/>
<text x="353.0" y="528" font-size="11.5" fill="#9A5B12" text-anchor="start" font-weight="bold">TIER 2 · High</text>
<text x="353.0" y="544" font-size="10.5" fill="#222222" text-anchor="start" font-weight="bold">sensitive data or broad reach</text>
<text x="353.0" y="559" font-size="10.5" fill="#9A5B12" text-anchor="start" font-weight="bold">→ HUMAN APPROVAL to ship</text>
<rect x="646.0" y="508" width="293.0" height="56" fill="#EAF3FA" stroke="#1F3A5F" stroke-width="1.4" rx="6" ry="6"/>
<text x="658.0" y="528" font-size="11.5" fill="#15293F" text-anchor="start" font-weight="bold">TIER 3 · Moderate</text>
<text x="658.0" y="544" font-size="10.5" fill="#222222" text-anchor="start" font-weight="bold">internal · limited blast radius</text>
<text x="658.0" y="559" font-size="10.5" fill="#15293F" text-anchor="start" font-weight="bold">→ AUTO-GATE when scan is clean</text>
<rect x="951.0" y="508" width="293.0" height="56" fill="#D8F0DF" stroke="#1E8E4E" stroke-width="1.4" rx="6" ry="6"/>
<text x="963.0" y="528" font-size="11.5" fill="#15692F" text-anchor="start" font-weight="bold">TIER 4 · Low</text>
<text x="963.0" y="544" font-size="10.5" fill="#222222" text-anchor="start" font-weight="bold">prototype · sandbox</text>
<text x="963.0" y="559" font-size="10.5" fill="#15692F" text-anchor="start" font-weight="bold">→ AUTO-GATE on pass</text>
<rect x="22" y="592" width="1236" height="128" fill="#F2FBFD" stroke="#0E7490" stroke-width="2.2" rx="9" ry="9" stroke-dasharray="10 5"/>
<text x="38" y="615" font-size="13" fill="#0B5566" text-anchor="start" font-weight="bold">FUTURE / PROPOSED ENVIRONMENT STATE</text>
<text x="322" y="615" font-size="11" fill="#555555" text-anchor="start" font-weight="bold">— proposed additions, not yet deployed</text>
<rect x="38.0" y="626" width="392.0" height="82" fill="#E3F6FB" stroke="#0E7490" stroke-width="1.6" rx="6" ry="6" stroke-dasharray="7 4"/>
<rect x="346.0" y="634" width="74" height="15" fill="#0E7490" stroke="#0E7490" stroke-width="1" rx="3" ry="3"/>
<text x="383.0" y="645" font-size="8.5" fill="#FFFFFF" text-anchor="middle" font-weight="bold">PROPOSED</text>
<text x="52.0" y="651" font-size="13" fill="#0B5566" text-anchor="start" font-weight="bold">Microsoft Foundry</text>
<text x="52.0" y="670" font-size="10.5" fill="#222222" text-anchor="start" font-weight="bold">Governed model &amp; agent build / deploy platform</text>
<text x="52.0" y="698" font-size="10" fill="#0E7490" text-anchor="start" font-weight="bold">extends → Controlled Build Environment</text>
<rect x="444.0" y="626" width="392.0" height="82" fill="#E3F6FB" stroke="#0E7490" stroke-width="1.6" rx="6" ry="6" stroke-dasharray="7 4"/>
<rect x="752.0" y="634" width="74" height="15" fill="#0E7490" stroke="#0E7490" stroke-width="1" rx="3" ry="3"/>
<text x="789.0" y="645" font-size="8.5" fill="#FFFFFF" text-anchor="middle" font-weight="bold">PROPOSED</text>
<text x="458.0" y="651" font-size="13" fill="#0B5566" text-anchor="start" font-weight="bold">Microsoft Agent365</text>
<text x="458.0" y="670" font-size="10.5" fill="#222222" text-anchor="start" font-weight="bold">Enterprise agent identity, registry &amp; lifecycle governance</text>
<text x="458.0" y="698" font-size="10" fill="#0E7490" text-anchor="start" font-weight="bold">extends → AI-Production / Agent Runtime</text>
<rect x="850.0" y="626" width="392.0" height="82" fill="#E3F6FB" stroke="#0E7490" stroke-width="1.6" rx="6" ry="6" stroke-dasharray="7 4"/>
<rect x="1158.0" y="634" width="74" height="15" fill="#0E7490" stroke="#0E7490" stroke-width="1" rx="3" ry="3"/>
<text x="1195.0" y="645" font-size="8.5" fill="#FFFFFF" text-anchor="middle" font-weight="bold">PROPOSED</text>
<text x="864.0" y="651" font-size="13" fill="#0B5566" text-anchor="start" font-weight="bold">Varonis Atlas</text>
<text x="864.0" y="670" font-size="10.5" fill="#222222" text-anchor="start" font-weight="bold">AI Detection &amp; Response (DDR) — AI data access &amp; behavior</text>
<text x="864.0" y="698" font-size="10" fill="#0E7490" text-anchor="start" font-weight="bold">extends → Continuous Assurance</text>
</svg>