<svg xmlns="http://www.w3.org/2000/svg" width="1200" height="880" viewBox="0 0 1200 880" font-family="Arial, Helvetica, sans-serif">
<defs>
<marker id="arr" viewBox="0 0 10 10" refX="9" refY="5" markerWidth="7" markerHeight="7" orient="auto-start-reverse">
<path d="M 0 0 L 10 5 L 0 10 z" fill="#1F3A5F"/></marker>
<marker id="arrL" viewBox="0 0 10 10" refX="9" refY="5" markerWidth="7" markerHeight="7" orient="auto-start-reverse">
<path d="M 0 0 L 10 5 L 0 10 z" fill="#8A95A8"/></marker>
<marker id="arrA" viewBox="0 0 10 10" refX="9" refY="5" markerWidth="7" markerHeight="7" orient="auto-start-reverse">
<path d="M 0 0 L 10 5 L 0 10 z" fill="#C04A2B"/></marker>
</defs>
<rect x="0" y="0" width="1200" height="44" fill="#1F3A5F" stroke="#1F3A5F" stroke-width="0" rx="0" ry="0"/>
<text x="600.0" y="28" font-size="18" fill="#FFFFFF" text-anchor="middle" font-weight="bold">AI Security Assurance Pipeline — Environment Tooling Highlighted</text>
<text x="40" y="65" font-size="11" fill="#222222" text-anchor="start" font-weight="bold">KEY:</text>
<rect x="80" y="54" width="14" height="13" fill="#D8F0DF" stroke="#1E8E4E" stroke-width="1.4" rx="2" ry="2"/>
<text x="100" y="65" font-size="11" fill="#222222" text-anchor="start" font-weight="normal">New tools introduced with ai-protect</text>
<rect x="380" y="54" width="14" height="13" fill="#FFF4E5" stroke="#C04A2B" stroke-width="1.4" rx="2" ry="2"/>
<text x="400" y="65" font-size="11" fill="#222222" text-anchor="start" font-weight="normal">Existing systems for integration</text>
<text x="1160" y="65" font-size="9" fill="#555555" text-anchor="end" font-weight="normal">within a stage: grouped by category, not sequential</text>
<rect x="40" y="80" width="130" height="90" fill="#EAF3FA" stroke="#1F3A5F" stroke-width="1.5" rx="6" ry="6"/>
<text x="105.0" y="102" font-size="11" fill="#15293F" text-anchor="middle" font-weight="bold">Stage 0</text>
<text x="105.0" y="130" font-size="13" fill="#222222" text-anchor="middle" font-weight="bold">Discovery &amp;</text>
<text x="105.0" y="148" font-size="13" fill="#222222" text-anchor="middle" font-weight="bold">Intake</text>
<line x1="171" y1="125.0" x2="181" y2="125.0" stroke="#1F3A5F" stroke-width="2" marker-end="url(#arr)"/>
<rect x="182" y="80" width="130" height="90" fill="#EAF3FA" stroke="#1F3A5F" stroke-width="1.5" rx="6" ry="6"/>
<text x="247.0" y="102" font-size="11" fill="#15293F" text-anchor="middle" font-weight="bold">Stage 1</text>
<text x="247.0" y="130" font-size="13" fill="#222222" text-anchor="middle" font-weight="bold">Triage &amp;</text>
<text x="247.0" y="148" font-size="13" fill="#222222" text-anchor="middle" font-weight="bold">Tiering</text>
<line x1="313" y1="125.0" x2="323" y2="125.0" stroke="#1F3A5F" stroke-width="2" marker-end="url(#arr)"/>
<rect x="324" y="80" width="130" height="90" fill="#EAF3FA" stroke="#1F3A5F" stroke-width="1.5" rx="6" ry="6"/>
<text x="389.0" y="102" font-size="11" fill="#15293F" text-anchor="middle" font-weight="bold">Stage 2</text>
<text x="389.0" y="130" font-size="13" fill="#222222" text-anchor="middle" font-weight="bold">Static /</text>
<text x="389.0" y="148" font-size="13" fill="#222222" text-anchor="middle" font-weight="bold">Pre-Prod</text>
<line x1="455" y1="125.0" x2="465" y2="125.0" stroke="#1F3A5F" stroke-width="2" marker-end="url(#arr)"/>
<rect x="466" y="80" width="130" height="90" fill="#EAF3FA" stroke="#1F3A5F" stroke-width="1.5" rx="6" ry="6"/>
<text x="531.0" y="102" font-size="11" fill="#15293F" text-anchor="middle" font-weight="bold">Stage 3</text>
<text x="531.0" y="130" font-size="13" fill="#222222" text-anchor="middle" font-weight="bold">Dynamic</text>
<text x="531.0" y="148" font-size="13" fill="#222222" text-anchor="middle" font-weight="bold">AppSec</text>
<line x1="597" y1="125.0" x2="607" y2="125.0" stroke="#1F3A5F" stroke-width="2" marker-end="url(#arr)"/>
<rect x="608" y="80" width="130" height="90" fill="#EAF3FA" stroke="#1F3A5F" stroke-width="1.5" rx="6" ry="6"/>
<text x="673.0" y="102" font-size="11" fill="#15293F" text-anchor="middle" font-weight="bold">Stage 4</text>
<text x="673.0" y="130" font-size="13" fill="#222222" text-anchor="middle" font-weight="bold">AI</text>
<text x="673.0" y="148" font-size="13" fill="#222222" text-anchor="middle" font-weight="bold">Red Team</text>
<line x1="739" y1="125.0" x2="749" y2="125.0" stroke="#1F3A5F" stroke-width="2" marker-end="url(#arr)"/>
<rect x="750" y="80" width="130" height="90" fill="#EAF3FA" stroke="#1F3A5F" stroke-width="1.5" rx="6" ry="6"/>
<text x="815.0" y="102" font-size="11" fill="#15293F" text-anchor="middle" font-weight="bold">Stage 5</text>
<text x="815.0" y="130" font-size="13" fill="#222222" text-anchor="middle" font-weight="bold">Remed-</text>
<text x="815.0" y="148" font-size="13" fill="#222222" text-anchor="middle" font-weight="bold">iation</text>
<line x1="881" y1="125.0" x2="891" y2="125.0" stroke="#1F3A5F" stroke-width="2" marker-end="url(#arr)"/>
<rect x="892" y="80" width="130" height="90" fill="#EAF3FA" stroke="#1F3A5F" stroke-width="1.5" rx="6" ry="6"/>
<text x="957.0" y="102" font-size="11" fill="#15293F" text-anchor="middle" font-weight="bold">Stage 6</text>
<text x="957.0" y="130" font-size="13" fill="#222222" text-anchor="middle" font-weight="bold">Continuous</text>
<text x="957.0" y="148" font-size="13" fill="#222222" text-anchor="middle" font-weight="bold">Monitoring</text>
<line x1="1023" y1="125.0" x2="1033" y2="125.0" stroke="#1F3A5F" stroke-width="2" marker-end="url(#arr)"/>
<rect x="1034" y="80" width="130" height="90" fill="#EAF3FA" stroke="#1F3A5F" stroke-width="1.5" rx="6" ry="6"/>
<text x="1099.0" y="102" font-size="11" fill="#15293F" text-anchor="middle" font-weight="bold">Stage 7</text>
<text x="1099.0" y="130" font-size="13" fill="#222222" text-anchor="middle" font-weight="bold">Reporting &amp;</text>
<text x="1099.0" y="148" font-size="13" fill="#222222" text-anchor="middle" font-weight="bold">Notification</text>
<rect x="40" y="195" width="130" height="131" fill="#FFFFFF" stroke="#8A95A8" stroke-width="1" rx="4" ry="4"/>
<rect x="45" y="200" width="120" height="18" fill="#FFF4E5" stroke="#C04A2B" stroke-width="1" rx="3" ry="3"/>
<text x="105.0" y="213" font-size="11" fill="#C04A2B" text-anchor="middle" font-weight="bold">Azure Repos scan</text>
<rect x="45" y="222" width="120" height="18" fill="#FFF4E5" stroke="#C04A2B" stroke-width="1" rx="3" ry="3"/>
<text x="105.0" y="235" font-size="11" fill="#C04A2B" text-anchor="middle" font-weight="bold">GitHub scan</text>
<rect x="45" y="244" width="120" height="18" fill="#FFF4E5" stroke="#C04A2B" stroke-width="1" rx="3" ry="3"/>
<text x="105.0" y="257" font-size="11" fill="#C04A2B" text-anchor="middle" font-weight="bold">Armis (assets)</text>
<text x="105.0" y="286" font-size="11" fill="#222222" text-anchor="middle" font-weight="normal">ServiceNow</text>
<text x="105.0" y="308" font-size="11" fill="#222222" text-anchor="middle" font-weight="normal">CASB egress</text>
<rect x="182" y="195" width="130" height="87" fill="#FFFFFF" stroke="#8A95A8" stroke-width="1" rx="4" ry="4"/>
<rect x="187" y="200" width="120" height="18" fill="#D8F0DF" stroke="#1E8E4E" stroke-width="1" rx="3" ry="3"/>
<text x="247.0" y="213" font-size="11" fill="#15692F" text-anchor="middle" font-weight="bold">OPA policy</text>
<rect x="187" y="222" width="120" height="18" fill="#D8F0DF" stroke="#1E8E4E" stroke-width="1" rx="3" ry="3"/>
<text x="247.0" y="235" font-size="11" fill="#15692F" text-anchor="middle" font-weight="bold">Tier scoring</text>
<text x="247.0" y="264" font-size="11" fill="#222222" text-anchor="middle" font-weight="normal">CMDB tag</text>
<rect x="324" y="195" width="130" height="153" fill="#FFFFFF" stroke="#8A95A8" stroke-width="1" rx="4" ry="4"/>
<rect x="329" y="200" width="120" height="18" fill="#D8F0DF" stroke="#1E8E4E" stroke-width="1" rx="3" ry="3"/>
<text x="389.0" y="213" font-size="11" fill="#15692F" text-anchor="middle" font-weight="bold">Semgrep</text>
<rect x="329" y="222" width="120" height="18" fill="#D8F0DF" stroke="#1E8E4E" stroke-width="1" rx="3" ry="3"/>
<text x="389.0" y="235" font-size="11" fill="#15692F" text-anchor="middle" font-weight="bold">CodeQL</text>
<rect x="329" y="244" width="120" height="18" fill="#D8F0DF" stroke="#1E8E4E" stroke-width="1" rx="3" ry="3"/>
<text x="389.0" y="257" font-size="11" fill="#15692F" text-anchor="middle" font-weight="bold">Trivy</text>
<rect x="329" y="266" width="120" height="18" fill="#D8F0DF" stroke="#1E8E4E" stroke-width="1" rx="3" ry="3"/>
<text x="389.0" y="279" font-size="11" fill="#15692F" text-anchor="middle" font-weight="bold">ModelScan</text>
<rect x="329" y="288" width="120" height="18" fill="#D8F0DF" stroke="#1E8E4E" stroke-width="1" rx="3" ry="3"/>
<text x="389.0" y="301" font-size="11" fill="#15692F" text-anchor="middle" font-weight="bold">TruffleHog</text>
<rect x="329" y="317" width="120" height="18" fill="#FFF4E5" stroke="#C04A2B" stroke-width="1" rx="3" ry="3"/>
<text x="389.0" y="330" font-size="11" fill="#C04A2B" text-anchor="middle" font-weight="bold">Mend.io (SAST/SCA)</text>
<rect x="466" y="195" width="130" height="131" fill="#FFFFFF" stroke="#8A95A8" stroke-width="1" rx="4" ry="4"/>
<rect x="471" y="200" width="120" height="18" fill="#D8F0DF" stroke="#1E8E4E" stroke-width="1" rx="3" ry="3"/>
<text x="531.0" y="213" font-size="11" fill="#15692F" text-anchor="middle" font-weight="bold">Nuclei</text>
<rect x="471" y="222" width="120" height="18" fill="#D8F0DF" stroke="#1E8E4E" stroke-width="1" rx="3" ry="3"/>
<text x="531.0" y="235" font-size="11" fill="#15692F" text-anchor="middle" font-weight="bold">ZAP</text>
<rect x="471" y="244" width="120" height="18" fill="#D8F0DF" stroke="#1E8E4E" stroke-width="1" rx="3" ry="3"/>
<text x="531.0" y="257" font-size="11" fill="#15692F" text-anchor="middle" font-weight="bold">Schemathesis</text>
<rect x="471" y="273" width="120" height="18" fill="#FFF4E5" stroke="#C04A2B" stroke-width="1" rx="3" ry="3"/>
<text x="531.0" y="286" font-size="11" fill="#C04A2B" text-anchor="middle" font-weight="bold">Burp Suite</text>
<rect x="471" y="295" width="120" height="18" fill="#FFF4E5" stroke="#C04A2B" stroke-width="1" rx="3" ry="3"/>
<text x="531.0" y="308" font-size="11" fill="#C04A2B" text-anchor="middle" font-weight="bold">Rapid7 InsightVM</text>
<rect x="608" y="195" width="130" height="102" fill="#FFFFFF" stroke="#8A95A8" stroke-width="1" rx="4" ry="4"/>
<rect x="613" y="200" width="120" height="18" fill="#D8F0DF" stroke="#1E8E4E" stroke-width="1" rx="3" ry="3"/>
<text x="673.0" y="213" font-size="11" fill="#15692F" text-anchor="middle" font-weight="bold">garak</text>
<rect x="613" y="222" width="120" height="18" fill="#D8F0DF" stroke="#1E8E4E" stroke-width="1" rx="3" ry="3"/>
<text x="673.0" y="235" font-size="11" fill="#15692F" text-anchor="middle" font-weight="bold">PyRIT</text>
<rect x="613" y="244" width="120" height="18" fill="#D8F0DF" stroke="#1E8E4E" stroke-width="1" rx="3" ry="3"/>
<text x="673.0" y="257" font-size="11" fill="#15692F" text-anchor="middle" font-weight="bold">ART</text>
<rect x="613" y="266" width="120" height="18" fill="#D8F0DF" stroke="#1E8E4E" stroke-width="1" rx="3" ry="3"/>
<text x="673.0" y="279" font-size="11" fill="#15692F" text-anchor="middle" font-weight="bold">PromptFoo</text>
<rect x="750" y="195" width="130" height="109" fill="#FFFFFF" stroke="#8A95A8" stroke-width="1" rx="4" ry="4"/>
<rect x="755" y="200" width="120" height="18" fill="#D8F0DF" stroke="#1E8E4E" stroke-width="1" rx="3" ry="3"/>
<text x="815.0" y="213" font-size="11" fill="#15692F" text-anchor="middle" font-weight="bold">Auto-PR (AzDO/GH)</text>
<rect x="755" y="222" width="120" height="18" fill="#D8F0DF" stroke="#1E8E4E" stroke-width="1" rx="3" ry="3"/>
<text x="815.0" y="235" font-size="11" fill="#15692F" text-anchor="middle" font-weight="bold">Llama Guard</text>
<rect x="755" y="244" width="120" height="18" fill="#D8F0DF" stroke="#1E8E4E" stroke-width="1" rx="3" ry="3"/>
<text x="815.0" y="257" font-size="11" fill="#15692F" text-anchor="middle" font-weight="bold">NeMo Guard</text>
<rect x="755" y="273" width="120" height="18" fill="#FFF4E5" stroke="#C04A2B" stroke-width="1" rx="3" ry="3"/>
<text x="815.0" y="286" font-size="11" fill="#C04A2B" text-anchor="middle" font-weight="bold">WAF (Palo Alto)</text>
<rect x="892" y="195" width="130" height="80" fill="#FFFFFF" stroke="#8A95A8" stroke-width="1" rx="4" ry="4"/>
<rect x="897" y="200" width="120" height="18" fill="#D8F0DF" stroke="#1E8E4E" stroke-width="1" rx="3" ry="3"/>
<text x="957.0" y="213" font-size="11" fill="#15692F" text-anchor="middle" font-weight="bold">Telemetry</text>
<rect x="897" y="222" width="120" height="18" fill="#D8F0DF" stroke="#1E8E4E" stroke-width="1" rx="3" ry="3"/>
<text x="957.0" y="235" font-size="11" fill="#15692F" text-anchor="middle" font-weight="bold">Drift det.</text>
<rect x="897" y="244" width="120" height="18" fill="#D8F0DF" stroke="#1E8E4E" stroke-width="1" rx="3" ry="3"/>
<text x="957.0" y="257" font-size="11" fill="#15692F" text-anchor="middle" font-weight="bold">Re-scan cron</text>
<rect x="1034" y="195" width="130" height="116" fill="#FFFFFF" stroke="#8A95A8" stroke-width="1" rx="4" ry="4"/>
<rect x="1039" y="200" width="120" height="18" fill="#D8F0DF" stroke="#1E8E4E" stroke-width="1" rx="3" ry="3"/>
<text x="1099.0" y="213" font-size="11" fill="#15692F" text-anchor="middle" font-weight="bold">Report card</text>
<rect x="1039" y="229" width="120" height="18" fill="#FFF4E5" stroke="#C04A2B" stroke-width="1" rx="3" ry="3"/>
<text x="1099.0" y="242" font-size="11" fill="#C04A2B" text-anchor="middle" font-weight="bold">Teams</text>
<rect x="1039" y="251" width="120" height="18" fill="#FFF4E5" stroke="#C04A2B" stroke-width="1" rx="3" ry="3"/>
<text x="1099.0" y="264" font-size="11" fill="#C04A2B" text-anchor="middle" font-weight="bold">Azure Boards / Jira</text>
<text x="1099.0" y="293" font-size="11" fill="#222222" text-anchor="middle" font-weight="normal">Slack</text>
<rect x="40" y="430" width="1120" height="70" fill="#FFF4E5" stroke="#E0A555" stroke-width="1.5" rx="8" ry="8"/>
<text x="60" y="455" font-size="12" fill="#15293F" text-anchor="start" font-weight="bold">ORCHESTRATION &amp; DATA PLANE</text>
<text x="60" y="480" font-size="12" fill="#222222" text-anchor="start" font-weight="normal">Azure Pipelines / Argo / Tekton (CI)  •  Kafka event bus  •  DefectDojo (findings sink — wired)  •  Vault / Key Vault (secrets)  •  OPA (deploy gates)</text>
<rect x="40" y="530" width="1120" height="90" fill="#1F3A5F" stroke="#15293F" stroke-width="1.5" rx="8" ry="8"/>
<text x="60" y="554" font-size="13" fill="#FFFFFF" text-anchor="start" font-weight="bold">SANCTIONED AI INFRASTRUCTURE  (anchored on v2.1 Operating Model)</text>
<rect x="65.0" y="568" width="206.0" height="42" fill="#2C547F" stroke="#456A92" stroke-width="1" rx="5" ry="5"/>
<text x="168.0" y="587" font-size="12" fill="#FFFFFF" text-anchor="middle" font-weight="bold">LLM Gateway</text>
<text x="168.0" y="602" font-size="10" fill="#EAF3FA" text-anchor="middle" font-weight="normal">Claude primary</text>
<rect x="281.0" y="568" width="206.0" height="42" fill="#2C547F" stroke="#456A92" stroke-width="1" rx="5" ry="5"/>
<text x="384.0" y="587" font-size="12" fill="#FFFFFF" text-anchor="middle" font-weight="bold">MCP Farm</text>
<text x="384.0" y="602" font-size="10" fill="#EAF3FA" text-anchor="middle" font-weight="normal">curated registry</text>
<rect x="497.0" y="568" width="206.0" height="42" fill="#2C547F" stroke="#456A92" stroke-width="1" rx="5" ry="5"/>
<text x="600.0" y="587" font-size="12" fill="#FFFFFF" text-anchor="middle" font-weight="bold">Agent Runtime</text>
<text x="600.0" y="602" font-size="10" fill="#EAF3FA" text-anchor="middle" font-weight="normal">SPIFFE ID, scoped</text>
<rect x="713.0" y="568" width="206.0" height="42" fill="#2C547F" stroke="#456A92" stroke-width="1" rx="5" ry="5"/>
<text x="816.0" y="587" font-size="12" fill="#FFFFFF" text-anchor="middle" font-weight="bold">Data Plane</text>
<text x="816.0" y="602" font-size="10" fill="#EAF3FA" text-anchor="middle" font-weight="normal">FHIR / vector / RAG</text>
<rect x="929.0" y="568" width="206.0" height="42" fill="#2C547F" stroke="#456A92" stroke-width="1" rx="5" ry="5"/>
<text x="1032.0" y="587" font-size="12" fill="#FFFFFF" text-anchor="middle" font-weight="bold">Telemetry Mesh</text>
<text x="1032.0" y="602" font-size="10" fill="#EAF3FA" text-anchor="middle" font-weight="normal">prompts • tools • completions</text>
<rect x="40" y="635" width="1120" height="110" fill="#243B55" stroke="#C04A2B" stroke-width="2.5" rx="8" ry="8"/>
<text x="60" y="659" font-size="13" fill="#FFFFFF" text-anchor="start" font-weight="bold">ENTERPRISE SECURITY ENVIRONMENT  (Microsoft-aligned)   ★ provided environment tooling</text>
<rect x="65.0" y="673" width="144.28571428571428" height="60" fill="#FFF4E5" stroke="#C04A2B" stroke-width="2" rx="5" ry="5"/>
<text x="137.14285714285714" y="692" font-size="11" fill="#C04A2B" text-anchor="middle" font-weight="bold">Endpoint / XDR</text>
<text x="137.14285714285714" y="709" font-size="9" fill="#222222" text-anchor="middle" font-weight="normal">Microsoft Defender</text>
<rect x="219.28571428571428" y="673" width="144.28571428571428" height="60" fill="#FFF4E5" stroke="#C04A2B" stroke-width="2" rx="5" ry="5"/>
<text x="291.42857142857144" y="692" font-size="11" fill="#C04A2B" text-anchor="middle" font-weight="bold">SIEM / SOAR</text>
<text x="291.42857142857144" y="709" font-size="9" fill="#222222" text-anchor="middle" font-weight="normal">Microsoft Sentinel</text>
<rect x="373.57142857142856" y="673" width="144.28571428571428" height="60" fill="#FFF4E5" stroke="#C04A2B" stroke-width="2" rx="5" ry="5"/>
<text x="445.71428571428567" y="692" font-size="11" fill="#C04A2B" text-anchor="middle" font-weight="bold">Threat Intel</text>
<text x="445.71428571428567" y="709" font-size="9" fill="#222222" text-anchor="middle" font-weight="normal">Google TI · OpenCTI</text>
<text x="445.71428571428567" y="722" font-size="9" fill="#222222" text-anchor="middle" font-weight="normal">· MS Defender TI</text>
<rect x="527.8571428571429" y="673" width="144.28571428571428" height="60" fill="#FFF4E5" stroke="#C04A2B" stroke-width="2" rx="5" ry="5"/>
<text x="600.0" y="692" font-size="11" fill="#C04A2B" text-anchor="middle" font-weight="bold">Email Security</text>
<text x="600.0" y="709" font-size="9" fill="#222222" text-anchor="middle" font-weight="normal">Abnormal</text>
<rect x="682.1428571428571" y="673" width="144.28571428571428" height="60" fill="#FFF4E5" stroke="#C04A2B" stroke-width="2" rx="5" ry="5"/>
<text x="754.2857142857142" y="692" font-size="11" fill="#C04A2B" text-anchor="middle" font-weight="bold">Network / Cloud</text>
<text x="754.2857142857142" y="709" font-size="9" fill="#222222" text-anchor="middle" font-weight="normal">Palo Alto NGFW /</text>
<text x="754.2857142857142" y="722" font-size="9" fill="#222222" text-anchor="middle" font-weight="normal">Prisma</text>
<rect x="836.4285714285713" y="673" width="144.28571428571428" height="60" fill="#FFF4E5" stroke="#C04A2B" stroke-width="2" rx="5" ry="5"/>
<text x="908.5714285714284" y="692" font-size="11" fill="#C04A2B" text-anchor="middle" font-weight="bold">AI Surfaces</text>
<text x="908.5714285714284" y="709" font-size="9" fill="#222222" text-anchor="middle" font-weight="normal">M365 / GitHub</text>
<text x="908.5714285714284" y="722" font-size="9" fill="#222222" text-anchor="middle" font-weight="normal">Copilot</text>
<rect x="990.7142857142857" y="673" width="144.28571428571428" height="60" fill="#FFF4E5" stroke="#C04A2B" stroke-width="2" rx="5" ry="5"/>
<text x="1062.857142857143" y="692" font-size="11" fill="#C04A2B" text-anchor="middle" font-weight="bold">Collaboration</text>
<text x="1062.857142857143" y="709" font-size="9" fill="#222222" text-anchor="middle" font-weight="normal">Microsoft Teams</text>
<rect x="40.0" y="765" width="363.3333333333333" height="80" fill="#FFF4E5" stroke="#C04A2B" stroke-width="2.5" rx="6" ry="6"/>
<text x="221.66666666666666" y="789" font-size="13" fill="#C04A2B" text-anchor="middle" font-weight="bold">Technical Dashboard</text>
<text x="221.66666666666666" y="815" font-size="11" fill="#222222" text-anchor="middle" font-weight="normal">Grafana — coverage, MTTR, jailbreak rate, ATLAS heatmap</text>
<rect x="418.3333333333333" y="765" width="363.3333333333333" height="80" fill="#FFF4E5" stroke="#C04A2B" stroke-width="2.5" rx="6" ry="6"/>
<text x="600.0" y="789" font-size="13" fill="#C04A2B" text-anchor="middle" font-weight="bold">Executive Dashboard</text>
<text x="600.0" y="815" font-size="11" fill="#222222" text-anchor="middle" font-weight="normal">Superset/Power BI — risk heatmap, portfolio KPIs, compliance</text>
<rect x="796.6666666666666" y="765" width="363.3333333333333" height="80" fill="#EAF3FA" stroke="#7BA8CC" stroke-width="1.5" rx="6" ry="6"/>
<text x="978.3333333333333" y="789" font-size="13" fill="#15293F" text-anchor="middle" font-weight="bold">Compliance Evidence</text>
<text x="978.3333333333333" y="815" font-size="11" fill="#222222" text-anchor="middle" font-weight="normal">HIPAA / HITRUST control mapping, audit query</text>
<line x1="105.0" y1="326" x2="105.0" y2="430" stroke="#8A95A8" stroke-width="1" stroke-dasharray="3 3"/>
<line x1="247.0" y1="282" x2="247.0" y2="430" stroke="#8A95A8" stroke-width="1" stroke-dasharray="3 3"/>
<line x1="389.0" y1="348" x2="389.0" y2="430" stroke="#8A95A8" stroke-width="1" stroke-dasharray="3 3"/>
<line x1="531.0" y1="326" x2="531.0" y2="430" stroke="#8A95A8" stroke-width="1" stroke-dasharray="3 3"/>
<line x1="673.0" y1="297" x2="673.0" y2="430" stroke="#8A95A8" stroke-width="1" stroke-dasharray="3 3"/>
<line x1="815.0" y1="304" x2="815.0" y2="430" stroke="#8A95A8" stroke-width="1" stroke-dasharray="3 3"/>
<line x1="957.0" y1="275" x2="957.0" y2="430" stroke="#8A95A8" stroke-width="1" stroke-dasharray="3 3"/>
<line x1="1099.0" y1="311" x2="1099.0" y2="430" stroke="#8A95A8" stroke-width="1" stroke-dasharray="3 3"/>
<line x1="168.0" y1="500" x2="168.0" y2="530" stroke="#8A95A8" stroke-width="1" stroke-dasharray="3 3"/>
<line x1="384.0" y1="500" x2="384.0" y2="530" stroke="#8A95A8" stroke-width="1" stroke-dasharray="3 3"/>
<line x1="600.0" y1="500" x2="600.0" y2="530" stroke="#8A95A8" stroke-width="1" stroke-dasharray="3 3"/>
<line x1="816.0" y1="500" x2="816.0" y2="530" stroke="#8A95A8" stroke-width="1" stroke-dasharray="3 3"/>
<line x1="1032.0" y1="500" x2="1032.0" y2="530" stroke="#8A95A8" stroke-width="1" stroke-dasharray="3 3"/>
<line x1="137.14285714285714" y1="620" x2="137.14285714285714" y2="635" stroke="#8A95A8" stroke-width="1" stroke-dasharray="3 3"/>
<line x1="291.42857142857144" y1="620" x2="291.42857142857144" y2="635" stroke="#8A95A8" stroke-width="1" stroke-dasharray="3 3"/>
<line x1="445.71428571428567" y1="620" x2="445.71428571428567" y2="635" stroke="#8A95A8" stroke-width="1" stroke-dasharray="3 3"/>
<line x1="600.0" y1="620" x2="600.0" y2="635" stroke="#8A95A8" stroke-width="1" stroke-dasharray="3 3"/>
<line x1="754.2857142857142" y1="620" x2="754.2857142857142" y2="635" stroke="#8A95A8" stroke-width="1" stroke-dasharray="3 3"/>
<line x1="908.5714285714284" y1="620" x2="908.5714285714284" y2="635" stroke="#8A95A8" stroke-width="1" stroke-dasharray="3 3"/>
<line x1="1062.857142857143" y1="620" x2="1062.857142857143" y2="635" stroke="#8A95A8" stroke-width="1" stroke-dasharray="3 3"/>
<line x1="221.66666666666666" y1="745" x2="221.66666666666666" y2="765" stroke="#8A95A8" stroke-width="1" stroke-dasharray="3 3"/>
<line x1="600.0" y1="745" x2="600.0" y2="765" stroke="#8A95A8" stroke-width="1" stroke-dasharray="3 3"/>
<line x1="978.3333333333333" y1="745" x2="978.3333333333333" y2="765" stroke="#8A95A8" stroke-width="1" stroke-dasharray="3 3"/>
</svg>